SplineFontDB: 3.2
FontName: Narain
FullName: Narain
FamilyName: Narain
Weight: Regular
Copyright: Copyright (C) 2022 Mihai Ciumeica
Version: 0.1
ItalicAngle: 0
UnderlinePosition: -118
UnderlineWidth: 34
Ascent: 820
Descent: 204
InvalidEm: 0
sfntRevision: 0x00010000
LayerCount: 2
Layer: 0 0 "Back" 1
Layer: 1 0 "Fore" 0
XUID: [1021 462 -1920817422 17387]
StyleMap: 0x0040
FSType: 0
OS2Version: 2
OS2_WeightWidthSlopeOnly: 0
OS2_UseTypoMetrics: 0
CreationTime: 1644349715
ModificationTime: 1644870412
PfmFamily: 81
TTFWeight: 400
TTFWidth: 5
LineGap: 102
VLineGap: 0
Panose: 0 0 0 0 0 0 0 0 0 0
OS2TypoAscent: 0
OS2TypoAOffset: 1
OS2TypoDescent: 0
OS2TypoDOffset: 1
OS2TypoLinegap: 102
OS2WinAscent: 0
OS2WinAOffset: 1
OS2WinDescent: 0
OS2WinDOffset: 1
HheadAscent: 0
HheadAOffset: 1
HheadDescent: 0
HheadDOffset: 1
OS2SubXSize: 650
OS2SubYSize: 700
OS2SubXOff: 47
OS2SubYOff: 140
OS2SupXSize: 650
OS2SupYSize: 700
OS2SupXOff: -164
OS2SupYOff: 480
OS2StrikeYSize: 49
OS2StrikeYPos: 258
OS2CapHeight: 820
OS2XHeight: 590
OS2Vendor: '    '
OS2CodePages: 00060001.00000000
OS2UnicodeRanges: 00000001.00000000.00000000.00000000
Lookup: 265 0 0 "'kern' Horizontal Kerning lookup 0" { } [' RQD' ('DFLT' <'dflt' > ) 'kern' ('DFLT' <'dflt' > ) ]
MarkAttachClasses: 1
DEI: 91125
ShortTable: maxp 16
  1
  0
  98
  212
  5
  0
  0
  1
  0
  0
  0
  0
  0
  0
  0
  0
EndShort
LangName: 1033 "" "" "" "" "" "Version 1.0" "" "" "" "" "" "" "" "SIL Open Font License (OFL)" "http://scripts.sil.org/OFL"
GaspTable: 1 65535 2 0
Encoding: UnicodeFull
UnicodeInterp: none
NameList: AGL For New Fonts
DisplaySize: -48
AntiAlias: 1
FitToEm: 0
WinInfo: 32 32 14
BeginPrivate: 0
EndPrivate
Grid
-1024 406.000030518 m 0
 2048 406.000030518 l 1024
  Named: "Minus"
-1024 588 m 0
 2048 588 l 1024
  Named: "x-height"
EndSplineSet
TeXData: 1 0 0 481280 240640 160426 600064 1048576 160426 783286 444596 497025 792723 393216 433062 380633 303038 157286 324010 404750 52429 2506097 1059062 262144
BeginChars: 1114113 97

StartChar: .notdef
Encoding: 1114112 -1 0
Width: 470
Flags: HW
LayerCount: 2
Fore
SplineSet
81 102 m 1
 158 102 158 102 388 102 c 1
 388 236 388 236 388 635 c 1
 312 635 312 635 81 635 c 1
 81 502 81 502 81 102 c 1
30 686 m 1
 132 686 132 686 440 686 c 1
 440 527 440 527 440 51 c 1
 337 51 337 51 30 51 c 1
 30 210 30 210 30 686 c 1
EndSplineSet
Validated: 1
EndChar

StartChar: exclam
Encoding: 33 33 3
Width: 470
Flags: HW
LayerCount: 2
Fore
SplineSet
172 62 m 0
 172 97 200 125 235 125 c 0
 270 125 298 97 298 62 c 0
 298 27 270 0 235 0 c 0
 200 0 172 27 172 62 c 0
196 766 m 0
 196 800 201 820 235 820 c 0
 265 820 276 802 276 766 c 3
 276 583 276 294 276 294 c 2
 276 271 266 253 235 253 c 0
 203 253 196 269 196 294 c 3
 196 395.333333333 196.444444444 506 196.444444444 612.074074074 c 0
 196.444444444 665.111111111 196.333333333 717 196 766 c 0
EndSplineSet
Validated: 1
EndChar

StartChar: quotedbl
Encoding: 34 34 4
Width: 470
Flags: HW
LayerCount: 2
Fore
SplineSet
137.260742188 748.263671875 m 2
 137.260742188 768.150390625 153.747070312 788.037109375 173.765625 788.037109375 c 0
 191.4296875 788.037109375 211.448242188 768.150390625 211.448242188 750.602539062 c 256
 211.448242188 738.905273438 212.625976562 720.1875 212.625976562 688.603515625 c 0
 212.625976562 658.188476562 213.803710938 638.301757812 213.803710938 627.7734375 c 256
 213.803710938 606.717773438 198.494140625 590.33984375 177.298828125 590.33984375 c 0
 156.102539062 590.33984375 137.260742188 606.717773438 137.260742188 627.7734375 c 26
 137.260742188 748.263671875 l 2
258.551757812 745.923828125 m 2
 258.551757812 769.319335938 271.505859375 788.037109375 292.701171875 788.037109375 c 0
 311.541992188 788.037109375 330.384765625 770.489257812 330.384765625 750.602539062 c 256
 330.384765625 735.395507812 332.739257812 640.641601562 332.739257812 625.434570312 c 256
 332.739257812 605.547851562 318.608398438 590.33984375 299.767578125 590.33984375 c 0
 277.392578125 590.33984375 258.551757812 606.717773438 258.551757812 627.7734375 c 26
 258.551757812 745.923828125 l 2
EndSplineSet
Validated: 1
EndChar

StartChar: numbersign
Encoding: 35 35 5
Width: 470
Flags: HW
LayerCount: 2
Fore
SplineSet
234.5 463 m 3
 206.5 463 203.5 440 203.5 418 c 3
 203.5 408 203.5 405 203.5 394 c 3
 203.5 367 205.5 336 233.5 336 c 3
 266.5 336 266.5 358 266.5 394 c 3
 266.5 400 266.5 413 266.5 418 c 3
 266.5 449 264.5 463 234.5 463 c 3
127.5 601 m 27
 127.5 643 127.5 708 127.5 708 c 3
 127.5 731 139.5 763 168.5 763 c 3
 198.5 763 205.5 733 205.5 708 c 259
 205.5 667 206.5 648 206.5 607 c 3
 206.5 580 208.5 564 238.5 564 c 3
 253.5 564 257.5 576 257.5 607 c 3
 257.5 637 257.5 679 257.5 708 c 3
 257.5 738 262.5 762 298.5 762 c 3
 328.5 762 333.5 733 333.5 708 c 27
 333.5 661 333.5 588 333.5 588 c 3
 333.5 550 381.5 556 381.5 521 c 3
 381.5 487 333.5 484 333.5 447 c 3
 333.5 417 333.5 379 333.5 355 c 3
 333.5 334 369.5 336 369.5 299 c 3
 369.5 250 332.5 256 332.5 232 c 0
 332.5 232 332.5 231 332.5 231 c 3
 332.5 191 333.5 135 333.5 92 c 3
 333.5 68 329.5 49 292.5 49 c 259
 267.5 49 257.5 67 257.5 92 c 3
 257.5 130 256.5 165 256.5 201 c 3
 256.5 222 255.5 238 234.5 239 c 0
 208.5 239 203.5 228 203.5 213 c 3
 203.5 176 206.5 130 206.5 98 c 3
 206.5 66 203.5 48 170.5 48 c 3
 130.5 48 128.5 71 128.5 118 c 3
 128.5 156 129.5 201 129.5 234 c 3
 129.5 260 90.5 261 90.5 299 c 3
 90.5 325 131.5 336 131.5 360 c 3
 131.5 396 131.5 424 131.5 462 c 3
 131.5 500 88.5 479 88.5 528 c 3
 88.5 555 127.5 569 127.5 601 c 27
EndSplineSet
Validated: 1
EndChar

StartChar: dollar
Encoding: 36 36 6
Width: 470
Flags: HW
LayerCount: 2
Fore
SplineSet
308 232.407226562 m 0
 326.96484375 232.407226562 331 279.485351562 331 291 c 0
 331 319.625 320.5859375 338.576171875 306.845703125 339.720703125 c 0
 293.10546875 340.865234375 286 328.270507812 286 299.645507812 c 2
 286 256 l 2
 286 242.646484375 303.4296875 232.407226562 308 232.407226562 c 0
238 381 m 0
 230.92578125 381 219 375.301757812 219 363.765625 c 2
 219 209.190429688 l 2
 219 203.465820312 223 197 240 197 c 256
 248.900390625 197 251 220.09375 251 247 c 2
 251 366 l 2
 251 375.506835938 242.154296875 381 238 381 c 0
219 525.209960938 m 2
 219 509.923828125 227.748046875 504.600585938 239.291015625 504.600585938 c 0
 246.189453125 504.600585938 251 508.469726562 251 526 c 2
 251 676.639648438 l 2
 251 692.032226562 250.279296875 711.845703125 235.85546875 711.845703125 c 0
 221.353515625 711.845703125 219 703.95703125 219 687.80078125 c 2
 219 525.209960938 l 2
184 575 m 2
 184 635 l 2
 184 641.086914062 181.984375 644.290039062 172.880859375 644.290039062 c 0
 165.357421875 644.290039062 154 631.038085938 154 618 c 16
 154 591.083007812 167.34765625 557 176 557 c 0
 179.734375 557 184 559.966796875 184 575 c 2
238 86 m 0
 225.6328125 86 218.705078125 77.994140625 218.705078125 63.525390625 c 3
 218.705078125 55.8583984375 218.388671875 39.1923828125 218.388671875 31.525390625 c 3
 218.388671875 26.8876953125 217.352539062 22.30078125 215.443359375 18.525390625 c 0
 212.763671875 13.2255859375 208.366210938 9.525390625 202.705078125 9.525390625 c 3
 190.705078125 9.525390625 183.68359375 16.5224609375 183.68359375 31.525390625 c 3
 183.68359375 38.7646484375 184 56.9345703125 184 63.525390625 c 3
 184 77.7294921875 174.166015625 90.482421875 164 99 c 0
 127 130 99.826171875 155.231445312 97 175 c 0
 94.95703125 189.29296875 120.955078125 198.3203125 132 207 c 1
 168.640625 207 184 205.405273438 184 235.525390625 c 2
 184 359.185546875 l 2
 184 380.905273438 185.291015625 396.84375 176.31640625 413 c 0
 155.5078125 440.744140625 133.53515625 471.056640625 112.1953125 497.73046875 c 0
 89.6015625 527.856445312 87 546.110351562 87 588 c 0
 87 648.065429688 140.625 739.6328125 169 768 c 0
 172.435546875 771.434570312 184 782.504882812 184 799.525390625 c 3
 184 811.297851562 198.06640625 820 211 820 c 0
 219.400390625 820 233.686523438 817 242 817 c 7
 251.684570312 817 260.682617188 820 268 820 c 0
 294.01953125 820 300.999023438 785.999023438 334 738 c 0
 345.7109375 720.966796875 349 707.004882812 349 690 c 0
 349 683.399414062 346.32421875 666 340 666 c 0
 321.97265625 666 322 670.999023438 311 681 c 0
 306.763671875 684.852539062 303 683 297 682 c 0
 288.779296875 680.629882812 286 656.016601562 286 643.370117188 c 2
 286 504 l 2
 286 483.541992188 294.064453125 475.030273438 305 463 c 0
 355 408 383 369.247070312 383 262 c 0
 383 212.653320312 337.004882812 150.392578125 306.115234375 117 c 0
 293.158203125 102.993164062 286.705078125 97.1728515625 286.705078125 72.525390625 c 0
 286.705078125 61.6552734375 285.947265625 48.3564453125 285.947265625 31.525390625 c 3
 285.947265625 21.5234375 279.705078125 9.525390625 270.705078125 9.525390625 c 0
 258.705078125 9.525390625 250.705078125 19.525390625 250.705078125 31.525390625 c 3
 250.705078125 36.271484375 251.705078125 57.263671875 251.705078125 64.525390625 c 0
 251.705078125 79.4580078125 249.45703125 86 238 86 c 0
EndSplineSet
Validated: 33
EndChar

StartChar: percent
Encoding: 37 37 7
Width: 470
Flags: HW
LayerCount: 2
Fore
SplineSet
315.53125 273 m 3
 368.049804688 273 394.53125 212.63671875 394.53125 154 c 3
 394.53125 110.435546875 370.609375 36 315.53125 36 c 3
 264.53125 36 248.53125 115.711914062 248.53125 154 c 3
 248.53125 210.008789062 267.251953125 273 315.53125 273 c 3
83.53125 694 m 259
 83.53125 749.2265625 124.33984375 763 146.53125 763 c 3
 199.05078125 763 219.53125 700.63671875 219.53125 642 c 3
 219.53125 598.435546875 194.609375 526 139.53125 526 c 3
 115.53125 526 82.53125 541 82.53125 569 c 3
 82.53125 636.067382812 160.53125 617 160.53125 642 c 3
 160.53125 665.782226562 83.53125 650.895507812 83.53125 694 c 259
82.53125 171 m 0
 143.975585938 293.888671875 264.53125 577 324.53125 718 c 256
 330.033203125 730.9296875 354.911132812 770.987304688 384.53125 757 c 0
 420.53125 740 401.278320312 700.213867188 396.53125 689 c 0
 338.53125 552 213.53125 258 148.03125 126 c 0
 137.767578125 105.315429688 110.53125 71 79.53125 92 c 0
 48.1884765625 113.232421875 72.57421875 151.084960938 82.53125 171 c 0
EndSplineSet
Validated: 33
EndChar

StartChar: ampersand
Encoding: 38 38 8
Width: 470
Flags: HW
LayerCount: 2
Fore
SplineSet
97.443359375 641 m 3
 97.443359375 696.034179688 119.89453125 822 204.5 822 c 3
 261.5 822 313.5 716.783203125 313.5 657 c 3
 313.5 573.221679688 245.5 517.078125 245.5 481 c 3
 245.5 439.749023438 289.486328125 315 325.5 315 c 3
 339.904296875 315 353.923828125 348 389.5 348 c 3
 405.7421875 348 413.595703125 333.997070312 413.595703125 317 c 3
 413.595703125 276.883789062 350.5 230.942382812 350.5 188 c 31
 350.5 136.221679688 434.5 65.6181640625 434.5 38 c 3
 434.5 25.822265625 405.7265625 10 388.5 10 c 259
 343.456054688 10 356.083984375 53 337.5 53 c 3
 316.815429688 53 307.76953125 44.7021484375 305.5 43 c 0
 277.5 22 267.5 0 176.5 0 c 3
 86.5185546875 0 35.5 140.01953125 35.5 232 c 3
 35.5 330.326171875 143.5 442.983398438 143.5 474 c 259
 143.5 518.999023438 97.443359375 572.666015625 97.443359375 641 c 3
258.5 662 m 256
 258.5 684.940429688 231.934570312 756 204.5 756 c 3
 171.90234375 756 150.5 697.598632812 150.5 655 c 3
 150.5 617.259765625 172.776367188 577 204.5 577 c 3
 241.947265625 577 258.5 622.82421875 258.5 662 c 256
245.5 297 m 0
 236.90625 314.203125 215.712890625 381.110351562 201.747070312 381.110351562 c 3
 145.751953125 381.110351562 118.5 291.297851562 118.5 228 c 0
 118.5 176.744140625 131.27734375 83 189.5 83 c 0
 260.500976562 83 277.5 118.418945312 277.5 180 c 0
 277.5 221.287109375 268.602539062 250.75390625 245.5 297 c 0
EndSplineSet
Validated: 1
EndChar

StartChar: quotesingle
Encoding: 39 39 9
Width: 470
Flags: HW
LayerCount: 2
Fore
SplineSet
174 538 m 259
 174 570.9296875 226 657.911132812 226 748 c 3
 226 796.010742188 238.724609375 822 265 822 c 0
 285.69140625 822 296 801 296 784 c 27
 296 717.48828125 254.154296875 490 211 490 c 7
 185.735351562 490 174 508.030273438 174 538 c 259
EndSplineSet
Validated: 1
EndChar

StartChar: parenleft
Encoding: 40 40 10
Width: 470
Flags: HW
LayerCount: 2
Fore
SplineSet
299.5 820 m 7
 320.212890625 820 329.5 809.01953125 329.5 794 c 7
 329.5 786.665039062 328.647460938 777.494140625 323.940429688 768.015625 c 4
 269.303710938 658 219.5 561.594726562 219.5 406 c 7
 219.5 273.350585938 272.416015625 140.000976562 315.415039062 55 c 260
 319.838867188 46.2548828125 322.5 37.240234375 322.5 29 c 7
 322.5 21.3994140625 320.032226562 14.458984375 314.415039062 9 c 260
 308.905273438 3.6455078125 297.302734375 0.2265625 291.5 0.2265625 c 7
 222.275390625 0.2265625 140.5 303.98046875 140.5 406 c 7
 140.5 538.227539062 199.268554688 710.469726562 258.794921875 790 c 4
 267.443359375 801.5546875 276.625 820 299.5 820 c 7
EndSplineSet
Validated: 1
EndChar

StartChar: parenright
Encoding: 41 41 11
Width: 470
Flags: HW
LayerCount: 2
Fore
SplineSet
170.5 820 m 7
 193.375 820 202.556640625 801.5546875 211.205078125 790 c 4
 270.731445312 710.469726562 329.5 538.227539062 329.5 406 c 7
 329.5 303.98046875 247.724609375 0.2265625 178.5 0.2265625 c 7
 172.697265625 0.2265625 161.094726562 3.6455078125 155.584960938 9 c 260
 149.967773438 14.458984375 147.5 21.3994140625 147.5 29 c 7
 147.5 37.240234375 150.161132812 46.2548828125 154.584960938 55 c 260
 197.583984375 140.000976562 250.5 273.350585938 250.5 406 c 7
 250.5 561.594726562 200.696289062 658 146.059570312 768.015625 c 4
 141.352539062 777.494140625 140.5 786.665039062 140.5 794 c 7
 140.5 809.01953125 149.787109375 820 170.5 820 c 7
EndSplineSet
Validated: 1
EndChar

StartChar: asterisk
Encoding: 42 42 12
Width: 470
Flags: HW
LayerCount: 2
Fore
SplineSet
81.5 544 m 1
 85.5 559 86.5 563 107.5 577 c 1
 129.5 577 143.5 572 148.5 564 c 256
 153.5 556 167.5 551 191.5 551 c 0
 196.5 551 198.5 553 199.5 556 c 256
 200.5 559 201.5 572 204.5 595 c 1
 204.5 634 204.5 655 205.5 659 c 0
 206.5 664 215.5 672 231.5 682 c 1
 248.5 673 l 2
 258.5 667 262.5 655 262.5 635 c 0
 262.5 630 262.5 623 261.5 617 c 0
 261.5 597 258.5 582 258.5 568 c 0
 258.5 558 266.5 551 283.5 546 c 1
 312.5 556 309.5 561 331.5 572 c 0
 351.5 583 355.5 588 355.5 590 c 2
 356.5 591 l 2
 358.5 591 369.5 587 389.5 578 c 1
 387.5 563 l 2
 386.5 553 380.5 541 370.5 529 c 1
 357.448242188 515.717773438 343.999023438 502.834960938 330.5 490 c 0
 309.5 469 269.5 432 259.5 406 c 1
 279.5 366 335.5 326 366.5 295 c 0
 379.5 280 389.5 267 389.5 253 c 0
 389.5 241 379.5 231 359.5 224 c 1
 341.5 231 323.5 238 307.5 246 c 2
 284.5 257 l 257
 271.5 266 269.5 265 259.5 240 c 1
 261.5 227 262.5 215 262.5 202 c 0
 262.5 169 260.5 128 233.5 126 c 0
 232.5 126 230.5 126 229.5 127 c 0
 213.5 144 205.5 160 205.5 176 c 0
 205.5 187 208.5 196 208.5 208 c 0
 208.5 222 206.5 237 203.5 254 c 0
 194.297851562 276.0859375 163.15234375 258.870117188 156.5 250 c 1
 138.5 240 122.5 235 108.5 235 c 0
 91.5 235 80.5 242 80.5 258 c 0
 80.5 264 81.5 272 84.5 281 c 1
 96.5 294 115.5 312 141.5 332 c 0
 167.5 354 187.5 377 199.5 405 c 1
 197.5 417 l 2
 196.5 424 190.5 431 180.5 437 c 1
 150.197265625 474.87890625 115.1484375 501.497070312 81.5 544 c 1
EndSplineSet
Validated: 33
EndChar

StartChar: plus
Encoding: 43 43 13
Width: 470
Flags: HW
LayerCount: 2
Fore
SplineSet
108.5 443 m 2
 161.5 443 l 2
 181.859375 443 191.5 443.890625 191.5 465 c 0
 191.5 532 191.5 594 191.5 661 c 4
 191.5 681.885742188 214.5 698 233.794921875 698 c 4
 251.5 698 271.5 684.022460938 271.5 662 c 7
 271.5 589.432617188 271.5 541.330078125 271.5 465 c 0
 271.5 456.283203125 283.10546875 443 291.5 443 c 2
 363.5 443 l 2
 381.5 443 400.5 418.801757812 400.5 406 c 0
 400.5 385.629882812 384.946289062 364 363.5 364 c 2
 291.5 364 l 2
 271.5 364 271.5 341 271.5 324 c 27
 271.5 254 271.5 144 271.5 144 c 259
 271.5 130.961914062 252.4765625 110 233.794921875 110 c 0
 208.244140625 110 191.5 128.83984375 191.5 146 c 2
 191.5 324 l 2
 191.5 351 187.396484375 364 161.5 364 c 2
 108.5 364 l 2
 86.5 364 69.5 380.3984375 69.5 406 c 0
 69.5 427.461914062 84.35546875 443 108.5 443 c 2
EndSplineSet
Validated: 1
EndChar

StartChar: comma
Encoding: 44 44 14
Width: 470
Flags: HW
LayerCount: 2
Fore
SplineSet
225.046875 9 m 5
 215.046875 12 202.046875 19 189.046875 30 c 4
 177.046875 40 170.046875 53 171.046875 69 c 4
 171.046875 71 171.046875 71 171.046875 73 c 4
 172.046875 86 178.046875 101 188.046875 115 c 260
 198.046875 129 213.046875 137 229.046875 137 c 4
 245.046875 137 258.046875 133 268.046875 126 c 4
 278.046875 119 285.046875 110 290.046875 99 c 4
 296.046875 85 299.046875 69 299.046875 51 c 4
 299.046875 40 298.046875 27 296.046875 14 c 4
 290.046875 -21 278.046875 -56 261.046875 -93 c 6
 261.046875 -93 261.046875 -93 246.046875 -123 c 260
 236.046875 -143 223.046875 -154 209.046875 -157 c 4
 202.046875 -157 198.046875 -156 195.046875 -154 c 4
 192.046875 -152 189.046875 -149 188.046875 -146 c 4
 186.046875 -139 188.046875 -129 194.046875 -117 c 4
 201.046875 -105 206.046875 -94 209.046875 -85 c 4
 211.046875 -82 215.046875 -70 222.046875 -47 c 4
 229.046875 -24 230.046875 -5 225.046875 9 c 5
EndSplineSet
Validated: 33
EndChar

StartChar: hyphen
Encoding: 45 45 15
Width: 470
Flags: HW
LayerCount: 2
Fore
SplineSet
83 406 m 4
 83 424.248046875 99 445 121 445 c 6
 343 445 l 6
 366.344726562 445 387 428.022460938 387 406 c 4
 387 380 357.1796875 366 343 366 c 6
 121 366 l 6
 103 366 83 382.4453125 83 406 c 4
EndSplineSet
Validated: 1
EndChar

StartChar: period
Encoding: 46 46 16
Width: 470
Flags: HW
LayerCount: 2
Fore
SplineSet
172 63 m 4
 172 98 200 126 235 126 c 4
 270 126 298 98 298 63 c 4
 298 28 270 1 235 1 c 4
 200 1 172 28 172 63 c 4
EndSplineSet
Validated: 1
EndChar

StartChar: slash
Encoding: 47 47 17
Width: 470
Flags: HW
LayerCount: 2
Fore
SplineSet
405.071289062 765 m 4
 314.071289062 522 229.071289062 297 124.071289062 34 c 4
 120.36328125 24.712890625 103.509765625 0 85.0712890625 0 c 7
 72.59765625 0 59.0712890625 6.9814453125 59.0712890625 34 c 7
 59.0712890625 46.0419921875 57.0712890625 54 68.0712890625 82 c 4
 157.756835938 310.290039062 206.228515625 435.942382812 328.071289062 754 c 4
 336.453125 775.879882812 354.052734375 820 381.071289062 820 c 7
 399.100585938 820 411.071289062 804.622070312 411.071289062 786 c 7
 411.071289062 779.234375 407.682617188 771.97265625 405.071289062 765 c 4
EndSplineSet
Validated: 33
EndChar

StartChar: zero
Encoding: 48 48 18
Width: 470
Flags: HW
LayerCount: 2
Fore
SplineSet
56.375 122 m 3
 56.375 329.69140625 56.375 485.790039062 56.375 688 c 3
 56.375 772.2734375 171.280273438 819 239.375 819 c 3
 312.017578125 819 411.625 759.92578125 411.625 688 c 3
 411.625 486.557617188 413.625 336.232421875 413.625 122 c 3
 413.625 58.15625 296.924804688 0 227.375 0 c 3
 153.0703125 0 56.375 38.3330078125 56.375 122 c 3
234.375 748.09765625 m 3
 167.991210938 748.09765625 120.375 711.595703125 120.375 646 c 2
 120.375 322 l 2
 120.375 285.875 129.696289062 260 143.625 260 c 3
 158.491210938 260 166.625 292 175.625 324 c 0
 207.124023438 432.498046875 284.512695312 647.662109375 299.625 693 c 0
 303.692382812 700.625976562 305.754882812 706.958984375 305.754882812 712 c 3
 305.754882812 728.520507812 273.875976562 748.09765625 234.375 748.09765625 c 3
351.375 621 m 3
 351.375 646.116210938 348.375 646 335.375 646 c 3
 329.904296875 646 322.537109375 641.423828125 319.625 632 c 0
 280.375 505 211.19140625 290.440429688 166.625 177 c 0
 142.184570312 114.788085938 145.541992188 67.7490234375 210.375 67.7490234375 c 3
 255.287109375 67.7490234375 350.375 91.3935546875 350.375 130 c 0
 350.67578125 192.637695312 351.375 406.799804688 351.375 621 c 3
EndSplineSet
Validated: 33
EndChar

StartChar: one
Encoding: 49 49 19
Width: 470
Flags: HW
LayerCount: 2
Fore
SplineSet
227.25 118 m 256
 227.25 262.630859375 227.25 464.349609375 227.25 572 c 3
 227.25 604.806640625 220.21875 621.165039062 203.25 621.165039062 c 3
 196.829101562 621.165039062 189.701171875 615.7734375 182.25 603 c 2
 182.25 603 141.438476562 504 136.25 504 c 3
 133.25 504 127.25 503 97.25 503 c 3
 92.9267578125 503 88.25 507.557617188 88.25 517 c 3
 88.25 527.336914062 88.25 534.52734375 88.25 557 c 3
 88.25 571.014648438 142.25 667 192.25 763 c 0
 197.888671875 773.826171875 253.25 819 269.25 819 c 0
 292.25 819 307.75 783 307.75 772 c 3
 307.75 563.049804688 307.75 345.125976562 307.75 118 c 0
 307.75 99 332.05078125 84.33984375 348.75 81 c 0
 363.75 78 381.75 57 381.75 40 c 0
 381.75 22 369.75 0 349.75 0 c 0
 296.75 0 246.25 0 193.25 0 c 0
 164.25 0 155.25 29 155.25 40 c 128
 155.25 70 169.25 78 184.25 83 c 0
 202.25 89 227.25 99 227.25 118 c 256
EndSplineSet
Validated: 1
EndChar

StartChar: two
Encoding: 50 50 20
Width: 470
Flags: HW
LayerCount: 2
Fore
SplineSet
56.4765625 647 m 3
 56.4765625 728.93359375 137.4765625 820 244.4765625 820 c 3
 342.255859375 820 413.5234375 722.583984375 413.5234375 621.115234375 c 259
 413.5234375 529.825195312 384.099609375 457.127929688 341.448242188 408.955078125 c 0
 289.249023438 350 255.25 322.65625 199.4765625 270 c 256
 178.408203125 250.109375 139.4765625 197.026367188 139.4765625 167 c 3
 139.4765625 150.424804688 139.4765625 138.024414062 139.4765625 117 c 3
 139.4765625 97.078125 146.4765625 81 163.4765625 81 c 3
 247.4765625 81 364.4765625 81 364.4765625 81 c 259
 382.251953125 81 407.4765625 65.9228515625 407.4765625 37 c 3
 407.4765625 17.111328125 389.120117188 0 363.4765625 0 c 3
 270.15234375 0 192.184570312 0 105.4765625 0 c 3
 83.4765625 0 57.4765625 26.8271484375 57.4765625 53 c 3
 57.4765625 91.6748046875 57.4765625 75.2197265625 57.4765625 115 c 256
 57.4765625 194.290039062 77.0166015625 212.03125 111.91796875 264.200195312 c 0
 152.29296875 321.204101562 204.096679688 371.736328125 250.5234375 413.375 c 256
 304.63671875 461.907226562 332.4765625 524.255859375 332.4765625 623 c 3
 332.4765625 691.010742188 301.4765625 738.245117188 243.870117188 738.245117188 c 3
 169.422851562 738.245117188 139.4765625 696.037109375 139.4765625 625 c 3
 139.4765625 613.436523438 123.108398438 588 100.4765625 588 c 3
 60.4765625 588 56.4765625 629.9296875 56.4765625 647 c 3
EndSplineSet
Validated: 1
EndChar

StartChar: three
Encoding: 51 51 21
Width: 470
Flags: HW
LayerCount: 2
Fore
SplineSet
127.946289062 820 m 2
 352.946289062 820 l 258
 372.259765625 820 391.303710938 800.740234375 391.303710938 783.40234375 c 0
 391.303710938 728.454101562 359.551757812 652.765625 341.946289062 615 c 1
 328.315429688 579.608398438 308.8671875 548.596679688 295.422851562 512.930664062 c 1
 295.422851562 494.006835938 306.924804688 480.614257812 317.982421875 469.380859375 c 0
 329.263671875 457.918945312 341.669921875 446.458984375 355.206054688 434.998046875 c 256
 390.147460938 405.416015625 398.055664062 341.098632812 398.055664062 281 c 3
 398.055664062 132.580078125 372.256835938 0 231.946289062 0 c 3
 166.607421875 0 71.9462890625 75.177734375 71.9462890625 155 c 27
 71.9462890625 194.283203125 70.9462890625 268 119.946289062 268 c 3
 147.337890625 268 162.946289062 221.848632812 162.946289062 196 c 3
 162.946289062 99.9951171875 192.755859375 86 234.946289062 86 c 3
 302.975585938 86 314.040039062 164.236328125 314.040039062 248 c 3
 314.040039062 313.626953125 310.440429688 410 255.946289062 410 c 3
 220.864257812 410 192.946289062 421.392578125 192.946289062 452 c 3
 192.946289062 462.516601562 199.974609375 485.002929688 206.30859375 496.884765625 c 0
 244.845703125 569.169921875 242.946289062 580 275.946289062 653 c 0
 278.306640625 658.221679688 295.946289062 688.875 295.946289062 705 c 259
 295.946289062 710.83984375 287.282226562 732 274.946289062 732 c 2
 127.946289062 732 l 2
 105.443359375 732 75.9462890625 744.850585938 75.9462890625 775 c 0
 75.9462890625 806.8125 91.76953125 820 127.946289062 820 c 2
EndSplineSet
Validated: 33
EndChar

StartChar: four
Encoding: 52 52 22
Width: 470
Flags: HW
LayerCount: 2
Fore
SplineSet
317.03125 820 m 3
 335.26953125 820 346.03125 810.60546875 346.03125 792.228515625 c 3
 346.03125 626.9140625 343.743164062 461.83203125 343.743164062 301 c 3
 343.743164062 270.01953125 379.375976562 252.356445312 390.130859375 247.399414062 c 0
 401.005859375 241.884765625 409.706054688 233.060546875 412.96875 222.032226562 c 1
 410.515625 182.219726562 389.649414062 179.935546875 353.15625 170.196289062 c 1
 347.897460938 164.86328125 342.629882812 155.744140625 342.629882812 143 c 3
 342.629882812 109.666992188 341.03125 62.55859375 341.03125 32 c 3
 341.03125 20.826171875 336.03125 0 324.03125 0 c 2
 296.693359375 0 l 2
 282.840820312 0 274.03125 17.1796875 274.03125 28.69140625 c 3
 274.03125 56.1591796875 275.03125 126.637695312 275.03125 143 c 3
 275.03125 169.348632812 242.708984375 173.0859375 213.03125 173.0859375 c 3
 184.165039062 173.0859375 155.54296875 173 126.606445312 173 c 3
 79.8095703125 173 58.03125 207.012695312 58.03125 223 c 3
 58.03125 225.205078125 57.03125 319.793945312 57.03125 322 c 3
 57.03125 342 80.4208984375 371.7890625 97.59375 409.524414062 c 0
 157.997070312 542.250976562 202.03125 630 266.15625 769.068359375 c 0
 276.033203125 790.489257812 282.396484375 819 300.03125 819 c 3
 305.580078125 819 309.41796875 820 317.03125 820 c 3
227.005859375 256 m 2
 265.568359375 256 278.03125 267.44921875 278.03125 305 c 3
 278.03125 360.099609375 278.03125 426.424804688 278.03125 481.462890625 c 3
 278.03125 515.344726562 278.852539062 541.872070312 257.456054688 541.872070312 c 3
 248.48046875 541.872070312 235.727539062 538.7421875 225.918945312 519.814453125 c 256
 198.03125 466 171.985351562 417.4453125 144.356445312 365.408203125 c 0
 131.23828125 340.701171875 128.03125 327.637695312 128.03125 294 c 3
 128.03125 266.590820312 138.639648438 256 161.755859375 256 c 2
 227.005859375 256 l 2
EndSplineSet
Validated: 33
EndChar

StartChar: five
Encoding: 53 53 23
Width: 470
Flags: HW
LayerCount: 2
Fore
SplineSet
54.939453125 464 m 3
 54.939453125 533.139648438 54.939453125 704.489257812 54.939453125 775 c 3
 54.939453125 797.090820312 87.2763671875 820 108.939453125 820 c 2
 108.939453125 820 235.84765625 820 313.287109375 820 c 3
 324.84765625 820 340.939453125 820 340.939453125 820 c 3
 360.828125 820 379.939453125 796.650390625 379.939453125 778 c 3
 379.939453125 753.84765625 364.573242188 739 340.797851562 739 c 2
 190.939453125 739 l 2
 168.916992188 739 153.018554688 738 148.107421875 730.008789062 c 0
 140.3828125 717.440429688 133.797851562 704.858398438 133.797851562 689.486328125 c 3
 133.797851562 647.588867188 133.939453125 601.319335938 133.939453125 550 c 3
 133.939453125 529.3984375 135.78125 512.940429688 140.939453125 504.366210938 c 0
 150.216796875 488.17578125 161.321289062 482.578125 187.786132812 482.578125 c 0
 213.500976562 482.578125 238.515625 483 263.939453125 483 c 3
 360.266601562 483 404.66796875 369.213867188 413.939453125 286 c 4
 414.9453125 259.9375 415.060546875 240.21484375 415.060546875 220.4453125 c 3
 415.060546875 100.47265625 362.0078125 0 232.939453125 0 c 3
 162.2734375 0 54.939453125 81.14453125 54.939453125 156 c 3
 54.939453125 172.881835938 61.939453125 195 88.939453125 195 c 3
 109.1484375 195 136.453125 166.125 143.939453125 148 c 0
 162.939453125 102 204.939453125 72 232.939453125 72 c 259
 337.743164062 72 335.939453125 153.762695312 335.939453125 252 c 3
 335.939453125 350.23828125 312.215820312 411 237.939453125 411 c 3
 211.766601562 411 153.016601562 411 126.939453125 411 c 3
 112.939453125 411 54.939453125 427.944335938 54.939453125 464 c 3
EndSplineSet
Validated: 33
EndChar

StartChar: six
Encoding: 54 54 24
Width: 470
Flags: HW
LayerCount: 2
Fore
SplineSet
53.5 533.217773438 m 3
 53.5 559.166992188 53.5 600.703125 53.5 633.373046875 c 3
 53.5 719.313476562 126.92578125 820 218.5 820 c 2
 262.15625 820 l 2
 319.350585938 820 383.951171875 771.873046875 383.951171875 709 c 3
 383.951171875 687.9296875 378.90234375 664.220703125 353.5 664.220703125 c 3
 336.673828125 664.220703125 325.958007812 669.267578125 318.672851562 681.618164062 c 0
 310.077148438 695.149414062 278.66796875 740.715820312 254.5 740.715820312 c 3
 216.078125 740.715820312 183.006835938 732.61328125 165.5 710 c 0
 147.923828125 687.296875 132.5 627.213867188 132.5 594 c 3
 132.5 580.313476562 132.5 568.377929688 132.5 558 c 3
 132.5 509.431640625 139.25 500 197.3984375 500 c 258
 244.5 500 l 2
 365.258789062 500 416.5 372.862304688 416.5 248 c 3
 416.5 114.08203125 361.293945312 0 226.5 0 c 3
 124.274414062 0 53.5 82.9208984375 53.5 176 c 3
 53.5 294.327148438 53.5 414.234375 53.5 533.217773438 c 3
132.5 257 m 3
 132.5 178.127929688 163.559570312 78 232.5 78 c 3
 317.5 78 336.5 156.90234375 336.5 254 c 3
 336.5 334.025390625 311.500976562 420 214.5 420 c 3
 130.446289062 420 132.5 374.036132812 132.5 257 c 3
EndSplineSet
Validated: 33
EndChar

StartChar: seven
Encoding: 55 55 25
Width: 470
Flags: HW
LayerCount: 2
Fore
SplineSet
103 740 m 3
 82.3857421875 740 61 745.98828125 61 780 c 259
 61 804.008789062 85 820 103 820 c 3
 153.256835938 820 329 820 329 820 c 2
 347 820 409 790 409 756 c 3
 409 711.985351562 408.686523438 702.1953125 408.686523438 678 c 3
 408.686523438 663.448242188 396.361328125 626.330078125 390.712890625 610.684570312 c 0
 329.096679688 440.026367188 261 224 198.48046875 46 c 0
 189.178710938 19.5166015625 174.189453125 0 152 0 c 3
 123.227539062 0 119.758789062 40.7099609375 129 66 c 0
 205 274 253.686523438 427 313.686523438 607 c 0
 327.442382812 648.267578125 328.686523438 658.935546875 328.686523438 694 c 3
 328.686523438 732.3359375 294.053710938 740 254 740 c 3
 206.844726562 740 153.047851562 740 103 740 c 3
EndSplineSet
Validated: 33
EndChar

StartChar: eight
Encoding: 56 56 26
Width: 470
Flags: HW
LayerCount: 2
Fore
SplineSet
85.5 587.942382812 m 3
 85.5 693.544921875 130.09765625 819.942382812 239.5 819.942382812 c 3
 347.20703125 819.942382812 386.5 708.477539062 386.5 587.942382812 c 3
 386.5 509.684570312 348.783203125 491.451171875 348.783203125 443.942382812 c 3
 348.783203125 401.94140625 418.5 362.12890625 418.5 256.240234375 c 0
 418.5 109.099609375 375.155273438 0 239.5 0 c 3
 112.703125 0 51.5 124.83984375 51.5 251.240234375 c 3
 51.5 378.251953125 126.6796875 374.037109375 126.6796875 443.942382812 c 7
 126.6796875 487.06640625 85.5 531.836914062 85.5 587.942382812 c 3
158.576171875 607.942382812 m 3
 158.576171875 536.90625 163.01953125 463.2421875 239.5 463.2421875 c 3
 304.359375 463.2421875 313.5 541.703125 313.5 606.942382812 c 3
 313.5 666.799804688 302.0703125 745.7421875 239.5 745.7421875 c 1
 179.8515625 743.006835938 158.576171875 680.598632812 158.576171875 607.942382812 c 3
126.5 243.240234375 m 3
 126.5 164.72265625 159.802734375 72 239.5 72 c 3
 319.908203125 72 345.5 154.791992188 345.5 243.240234375 c 3
 345.5 318.46484375 327.01171875 401.798828125 239.5 401.798828125 c 3
 161.50390625 401.798828125 126.5 320.259765625 126.5 243.240234375 c 3
EndSplineSet
Validated: 1
EndChar

StartChar: nine
Encoding: 57 57 27
Width: 470
Flags: HW
LayerCount: 2
Fore
SplineSet
245.015625 325 m 3
 108.990234375 325 57.279296875 445.754882812 57.279296875 594.360351562 c 0
 57.279296875 737.86328125 105.185546875 819.48046875 243.201171875 819.48046875 c 3
 353.833007812 819.48046875 412.720703125 733.38671875 412.720703125 622 c 2
 412.720703125 218 l 2
 412.720703125 121.55078125 360.461914062 0 261.720703125 0 c 3
 172.104492188 0 57.44921875 51.2509765625 57.44921875 138 c 3
 57.44921875 154.44921875 73.880859375 173.122070312 99.720703125 173.122070312 c 3
 126.6484375 173.122070312 135.2578125 138.057617188 158.720703125 110 c 0
 177.622070312 87.396484375 207.568359375 70.6103515625 253.719726562 70.6103515625 c 3
 296.720703125 70.6103515625 337.720703125 133.98828125 337.720703125 175.48046875 c 3
 337.720703125 213.559570312 337.720703125 243.776367188 337.720703125 270.6796875 c 3
 337.720703125 308.153320312 332.359375 325 294.294921875 325 c 3
 281.923828125 325 265.17578125 325 245.015625 325 c 3
242.720703125 747 m 3
 188.680664062 747 164.294921875 738.950195312 146.880859375 704.120117188 c 0
 135.680664062 679.48046875 130.080078125 648.120117188 130.080078125 607.799804688 c 3
 130.080078125 491.651367188 140.013671875 398.360351562 245.439453125 398.360351562 c 3
 264.48046875 398.360351562 264.48046875 398.360351562 290.240234375 398.360351562 c 3
 327.056640625 398.360351562 337.720703125 431.870117188 337.720703125 472.280273438 c 3
 337.720703125 521.609375 337.720703125 558.330078125 337.720703125 606.6796875 c 3
 337.720703125 696.348632812 308.40625 747 242.720703125 747 c 3
EndSplineSet
Validated: 1
EndChar

StartChar: colon
Encoding: 58 58 28
Width: 470
Flags: HW
LayerCount: 2
Fore
SplineSet
171 406 m 4
 171 441 199 469 234 469 c 4
 269 469 297 441 297 406 c 4
 297 371 269 344 234 344 c 4
 199 344 171 371 171 406 c 4
173 60 m 4
 173 95 201 123 236 123 c 4
 271 123 299 95 299 60 c 4
 299 25 271 -2 236 -2 c 4
 201 -2 173 25 173 60 c 4
EndSplineSet
Validated: 1
EndChar

StartChar: semicolon
Encoding: 59 59 29
Width: 470
Flags: HW
LayerCount: 2
Fore
SplineSet
226 7 m 1
 216 10 203 17 190 28 c 0
 178 38 171 51 172 67 c 0
 172 69 172 69 172 71 c 0
 173 84 179 99 189 113 c 256
 199 127 214 135 230 135 c 0
 246 135 259 131 269 124 c 0
 279 117 286 108 291 97 c 0
 297 83 300 67 300 49 c 0
 300 38 299 25 297 12 c 0
 291 -23 279 -58 262 -95 c 2
 262 -95 262 -95 247 -125 c 256
 237 -145 215.364257812 -157 201.046875 -157 c 0
 194.046875 -157 190.046875 -156 187.046875 -154 c 0
 184.046875 -152 190 -151 189 -148 c 0
 187 -141 189 -131 195 -119 c 0
 202 -107 207 -96 210 -87 c 0
 212 -84 216 -72 223 -49 c 0
 230 -26 231 -7 226 7 c 1
170 406 m 0
 170 441 198 469 233 469 c 0
 268 469 296 441 296 406 c 0
 296 371 268 344 233 344 c 0
 198 344 170 371 170 406 c 0
EndSplineSet
Validated: 33
EndChar

StartChar: less
Encoding: 60 60 30
Width: 470
Flags: HW
LayerCount: 2
Fore
SplineSet
108.665039062 346 m 0
 93.5830078125 360.872070312 75.3349609375 378.966796875 75.3349609375 406 c 3
 75.3349609375 431.112304688 99.7373046875 457.537109375 108.665039062 466 c 0
 204.665039062 557 240.845703125 599.7265625 300.665039062 651 c 0
 320.685546875 668.16015625 339.365234375 677 353.665039062 677 c 3
 377.6328125 677 394.665039062 659.0234375 394.665039062 638 c 3
 394.665039062 621.009765625 383.408203125 614.249023438 361.665039062 593 c 0
 317.665039062 550 264.665039062 497 208.174804688 444.530273438 c 0
 199.287109375 436.275390625 186.334960938 419.146484375 186.334960938 406 c 3
 186.334960938 391.700195312 198.911132812 376.266601562 208.665039062 367 c 0
 288.665039062 291 299.063476562 281.595703125 361.665039062 219 c 256
 371.232421875 209.43359375 394.665039062 187.684570312 394.665039062 170 c 3
 394.665039062 151.125976562 383.733398438 132 353.665039062 132 c 3
 332.452148438 132 317.23046875 144.35546875 300.665039062 160 c 0
 250.971679688 206.932617188 180.665039062 275 108.665039062 346 c 0
EndSplineSet
Validated: 1
EndChar

StartChar: equal
Encoding: 61 61 31
Width: 470
Flags: HW
LayerCount: 2
Fore
SplineSet
129.506835938 460 m 2
 102.506835938 460 83.5068359375 475 82.5068359375 501 c 0
 81.5166015625 526.763671875 106.08203125 540 129.506835938 540 c 2
 338.506835938 540 l 2
 371.872070312 540 388.079101562 521 387.506835938 501 c 0
 386.764648438 475 380.138671875 460 338.506835938 460 c 258
 129.506835938 460 l 2
129.506835938 271 m 3
 93.35546875 271 82.5068359375 282.799804688 82.5068359375 312 c 3
 82.5068359375 337.67578125 103.506835938 351 129.506835938 351 c 3
 232.506835938 351 338.506835938 350 338.506835938 350 c 3
 370.51171875 350 387.506835938 333.0234375 387.506835938 312 c 3
 387.506835938 286 363.485351562 270 338.506835938 270 c 3
 255.436523438 270 217.250976562 271 129.506835938 271 c 3
EndSplineSet
Validated: 33
EndChar

StartChar: greater
Encoding: 62 62 32
Width: 470
Flags: HW
LayerCount: 2
Fore
SplineSet
361.334960938 346 m 0
 289.334960938 275 219.028320312 206.932617188 169.334960938 160 c 0
 152.76953125 144.35546875 137.547851562 132 116.334960938 132 c 3
 86.2666015625 132 75.3349609375 151.125976562 75.3349609375 170 c 3
 75.3349609375 187.684570312 98.767578125 209.43359375 108.334960938 219 c 256
 170.936523438 281.595703125 181.334960938 291 261.334960938 367 c 0
 271.088867188 376.266601562 283.665039062 391.700195312 283.665039062 406 c 3
 283.665039062 419.146484375 270.712890625 436.275390625 261.825195312 444.530273438 c 0
 205.334960938 497 152.334960938 550 108.334960938 593 c 0
 86.591796875 614.249023438 75.3349609375 621.009765625 75.3349609375 638 c 3
 75.3349609375 659.0234375 92.3671875 677 116.334960938 677 c 3
 130.634765625 677 149.314453125 668.16015625 169.334960938 651 c 0
 229.154296875 599.7265625 265.334960938 557 361.334960938 466 c 0
 370.262695312 457.537109375 394.665039062 431.112304688 394.665039062 406 c 3
 394.665039062 378.966796875 376.416992188 360.872070312 361.334960938 346 c 0
EndSplineSet
Validated: 1
EndChar

StartChar: question
Encoding: 63 63 33
Width: 470
Flags: HW
LayerCount: 2
Fore
SplineSet
201.5 63 m 0
 201.5 98 229.5 126 264.5 126 c 0
 299.5 126 327.5 98 327.5 63 c 0
 327.5 28 299.5 1 264.5 1 c 0
 229.5 1 201.5 28 201.5 63 c 0
138.5 631 m 3
 138.5 601.982421875 123.5 579 98.5 579 c 27
 71.5 579 57.5 602.982421875 57.5 631 c 3
 57.5 724.951171875 132.055664062 821 232.5 821 c 3
 366.485351562 821 412.5 687.977539062 412.5 564 c 3
 412.5 439.211914062 299.5 369.630859375 299.5 290 c 3
 299.5 249.950195312 282.317382812 240 264.5 240 c 3
 241.18359375 240 222.5 251.950195312 222.5 292 c 3
 222.5 403.737304688 343.5 445.368164062 343.5 564 c 3
 343.5 686.065429688 293.935546875 746 232.5 746 c 3
 172.4453125 746 138.5 698.374023438 138.5 631 c 3
EndSplineSet
Validated: 1
EndChar

StartChar: at
Encoding: 64 64 34
Width: 470
Flags: HW
LayerCount: 2
Fore
SplineSet
54.5009765625 152 m 2
 57.5009765625 568 l 18
 58.078125 648 121.720703125 731 241.500976562 731 c 0
 368.500976562 731 415.500976562 643.008789062 415.500976562 588 c 0
 415.500976562 471.91796875 415.500976562 354.594726562 415.500976562 240 c 0
 415.500976562 204.986328125 385.500976562 139 355.500976562 139 c 0
 336.325195312 139 322.271484375 149 303.500976562 149 c 0
 275.533203125 149 254.698242188 139 232.795898438 139 c 0
 187.235351562 139 177.845703125 194 147.500976562 194 c 0
 122.703125 194 120.364257812 182.376953125 120.364257812 163 c 0
 120.364257812 117.465820312 152.25390625 65 189.500976562 65 c 282
 346.500976562 65 l 2
 366.944335938 65 387.500976562 45.9609375 387.500976562 31 c 0
 387.500976562 12.236328125 365.666015625 0 346.500976562 0 c 2
 177.500976562 0 l 2
 107.296875 0 54.162109375 105.00390625 54.5009765625 152 c 2
242.500976562 519 m 0
 211.395507812 519 193.500976562 491.336914062 193.500976562 465 c 2
 193.500976562 265 l 2
 193.500976562 249.706054688 211.500976562 207 235.500976562 207 c 0
 255.603515625 207 278.500976562 239.107421875 278.500976562 265 c 2
 278.500976562 465 l 2
 278.500976562 482.000976562 270.500976562 519 242.500976562 519 c 0
342.500976562 527 m 0
 353.663085938 527 370.500976562 550.944335938 370.500976562 560 c 0
 370.500976562 612 289.610351562 665 232.795898438 665 c 0
 173.498046875 665 118.500976562 625.520507812 118.500976562 560 c 256
 118.500976562 538.529296875 128.396484375 527 147.500976562 527 c 0
 180.500976562 527 187.307617188 592 242.500976562 592 c 0
 304.771484375 592 297.500976562 527 342.500976562 527 c 0
EndSplineSet
Validated: 33
EndChar

StartChar: A
Encoding: 65 65 35
Width: 470
Flags: HW
LayerCount: 2
Fore
SplineSet
96.5 0 m 3
 72.259765625 0 59.5 11.88671875 59.5 30 c 0
 59.5 136.665039062 59.5 157.37109375 59.5 238 c 3
 59.5 331.443359375 155.5 819 197.5 819 c 3
 207.301757812 819 241.30859375 819 253.5 819 c 3
 307.5 819 409.5 324.629882812 409.5 242 c 3
 409.5 194.487304688 410.5 77.9697265625 410.5 30 c 0
 410.5 16.953125 393.61328125 0 374.5 0 c 3
 356.506835938 0 340.5 19.0703125 340.5 30 c 3
 340.5 45.3857421875 339.5 74.90625 339.5 88 c 3
 339.5 108.18359375 325.6796875 141 299.5 141 c 2
 174.5 141 l 2
 148.538085938 141 128.5 114.603515625 128.5 94 c 3
 128.5 67.86328125 128.827148438 71.5888671875 128.827148438 30 c 3
 128.827148438 13.69140625 114.459960938 0 96.5 0 c 3
231.5 636 m 259
 217.986328125 636 207.849609375 622.692382812 202.0703125 592.0546875 c 0
 181.5 483 150.416992188 359.8984375 138.78515625 258.51171875 c 256
 136.540039062 238.942382812 133.85546875 230.884765625 141.5 222 c 0
 144.34375 218.6953125 146.974609375 215.974609375 149.5 213.747070312 c 0
 156.545898438 207.53125 162.772460938 207 170.5 207 c 3
 193.834960938 207 261.2890625 206.936523438 293.5 206.936523438 c 3
 310.263671875 206.936523438 324.008789062 211.471679688 329.610351562 221.547851562 c 0
 333.03515625 227.70703125 335.635742188 241.162109375 331.846679688 261 c 0
 309.5 378 282.5 485 260.440429688 592.0546875 c 0
 254.6953125 619.935546875 245.013671875 636 231.5 636 c 259
EndSplineSet
Validated: 33
EndChar

StartChar: B
Encoding: 66 66 36
Width: 470
Flags: HW
LayerCount: 2
Fore
SplineSet
53.4873046875 782 m 3
 53.4873046875 793.044921875 71.4873046875 820 99.4873046875 820 c 2
 285.487304688 820 l 2
 346.571289062 820 398 677.024414062 398 595 c 3
 398 542.990234375 357.487304688 476.012695312 357.487304688 437 c 3
 357.487304688 412.100852824 416.512671376 354.746112569 416.512671376 224.000002315 c 3
 416.512671376 125.487223484 376.129195169 -6.93889390391e-18 283.487304688 0 c 258
 86.4873046875 0 l 258
 69.3916015625 0 54.4873046875 6.8154296875 54.4873046875 42 c 0
 54.4873046875 122.28125 54.4873046875 233.725585938 54.4873046875 314 c 0
 54.4873046875 424.987304688 53.4873046875 508.23046875 53.4873046875 618 c 2
 53.4873046875 618 53.4873046875 716.854492188 53.4873046875 782 c 3
184.487304688 738 m 3
 166.487304688 738 135.043945312 718 136 687 c 0
 138.416992188 608.625976562 136 553.866210938 136 494 c 3
 136 478.015625 155.212890625 464 166.487304688 464 c 3
 188.74609375 464 218.262695312 464 246.487304688 464 c 3
 271.487304688 464 315 530.9296875 315 595 c 3
 315 690.450195312 279 738 254 738 c 3
 237.7265625 738 210.599609375 738 184.487304688 738 c 3
189.487304688 384 m 3
 146.5625 384 136 355.333007812 136 304.315429688 c 0
 134.252929688 249.435546875 136 188.432617188 136 133 c 3
 136 84.15234375 162.918945312 79.9931640625 192 79.9931640625 c 3
 210.60546875 79.9931640625 233.369140625 80 258 80 c 3
 326.813820952 80 338 152.15234375 338 226 c 3
 338 291.45703125 306.583764815 384 260.20703125 384 c 3
 260.028839334 384 196.883442614 384 189.487304688 384 c 3
EndSplineSet
EndChar

StartChar: C
Encoding: 67 67 37
Width: 470
Flags: HW
LayerCount: 2
Fore
SplineSet
146.5 602 m 3
 146.5 462.943359375 144.5 321.9375 144.5 200 c 3
 144.5 135.686523438 163.303710938 82 235.5 82 c 3
 308.607421875 82 295.529296875 147.325195312 323.5 195 c 256
 331.034179688 207.840820312 344.793945312 216 357.5 216 c 3
 379.176757812 216 397.5 174.709960938 397.5 147 c 0
 397.5 94.501953125 320.129882812 1.759765625 266.900390625 1.759765625 c 0
 225.08984375 1.759765625 200.286132812 0 178.5 0 c 259
 136.12890625 0 60.5 132.877929688 60.5 190 c 3
 60.5 345.250976562 63.5 495.463867188 63.5 644 c 3
 63.5 702.137695312 120.00390625 822 194.5 822 c 3
 220.58984375 822 237.5234375 822 259.5 822 c 3
 328.450195312 822 372.09375 768.329101562 393.5546875 718 c 0
 404.31640625 692.763671875 409.5 668.368164062 409.5 652 c 3
 409.5 629.456054688 393.583007812 607 366.5 607 c 3
 350.993164062 607 338.000976562 626.555664062 327.5 646 c 0
 306.377929688 685.110351562 310.5 739 237.5 739 c 3
 161.5 739 146.5 627.97265625 146.5 602 c 3
EndSplineSet
Validated: 1
EndChar

StartChar: D
Encoding: 68 68 38
Width: 470
Flags: HW
LayerCount: 2
Fore
SplineSet
111.678710938 820 m 3
 125.360351562 820 144.749023438 819.327148438 166.678710938 819 c 0
 300.678710938 817 404.678710938 641.947265625 404.678710938 514 c 0
 404.678710938 458.513671875 402.083984375 390.185546875 402.083984375 344.038085938 c 3
 402.083984375 168.426757812 319.87109375 0 143.678710938 0 c 0
 94.642578125 2.625 103.5078125 8.2666015625 71.8681640625 40.52734375 c 0
 70.8212890625 41.5947265625 67.6787109375 56.458984375 67.6787109375 64 c 3
 67.6787109375 309.635742188 65.6787109375 520.13671875 65.6787109375 741 c 3
 65.6787109375 768.8359375 58.19140625 820 111.678710938 820 c 3
187.678710938 95.5576171875 m 3
 198.252929688 95.5576171875 209.7578125 95.4736328125 222.9609375 95.4736328125 c 3
 280.678710938 95.4736328125 337.9375 292.498046875 337.9375 432 c 3
 337.9375 560.712890625 307.88671875 729.913085938 189.678710938 729.913085938 c 3
 167.678710938 729.913085938 144.3984375 684.025390625 144.3984375 651.276367188 c 3
 144.3984375 480.295898438 142.678710938 291.944335938 142.678710938 121 c 3
 142.678710938 102 166.678710938 95.5576171875 187.678710938 95.5576171875 c 3
EndSplineSet
Validated: 33
EndChar

StartChar: E
Encoding: 69 69 39
Width: 470
Flags: HW
LayerCount: 2
Fore
SplineSet
91.064453125 820 m 3
 185.043945312 820 282.397460938 820 368.064453125 820 c 3
 382.756835938 820 413.064453125 805 413.064453125 778 c 3
 413.064453125 748.48828125 380.881835938 742 368.064453125 742 c 259
 318.526367188 742 238.109375 742 176.064453125 742 c 259
 145.984375 742 130.01953125 739.421875 128.064453125 693.419921875 c 1
 128.064453125 629.737304688 125.409179688 568.365234375 128.064453125 498 c 256
 129.190429688 468.166015625 146.830078125 458.5 158.064453125 459 c 0
 194.39453125 460.618164062 243.004882812 462 279.064453125 462 c 1
 299.60546875 455.56640625 318.064453125 450.436523438 318.064453125 426 c 3
 318.064453125 399.896484375 306.147460938 387.09375 279.064453125 387.09375 c 3
 241.884765625 387.09375 202.305664062 387.973632812 158.064453125 386 c 0
 129.109375 384.708984375 127.064453125 367.734375 127.064453125 336 c 3
 127.064453125 259.024414062 127.064453125 192.091796875 127.064453125 126 c 3
 127.064453125 93.955078125 125.185546875 78 174.064453125 78 c 3
 200.595703125 78 338.732421875 82 370.064453125 82 c 3
 385.064453125 82 423.064453125 72 423.064453125 41 c 3
 423.064453125 22.1318359375 391.068359375 -1 369.068359375 -1 c 3
 288.76171875 -1 172.130859375 0 98.064453125 0 c 3
 64.748046875 0 45.57421875 26.3037109375 47.0107421875 57.8212890625 c 0
 47.064453125 59 47.0107421875 60.03125 47.0107421875 60.03125 c 3
 47.0107421875 276.545898438 48.38671875 537.030273438 48.38671875 762.619140625 c 3
 48.38671875 784.750976562 67.3154296875 820 91.064453125 820 c 3
EndSplineSet
Validated: 33
EndChar

StartChar: F
Encoding: 70 70 40
Width: 470
Flags: HW
LayerCount: 2
Fore
SplineSet
97 820 m 3
 191 820 287 820 373 820 c 3
 388 820 418 805 418 778 c 3
 418 748 386 742 373 742 c 259
 323 742 243 742 181 742 c 259
 151 742 133 739 133 693 c 3
 133 630 133 568 133 498 c 259
 133 468 152 460 163 460 c 3
 199 460 248 460 284 460 c 3
 306 460 323 450 323 426 c 3
 323 400 311 387 284 387 c 3
 247 387 207 387 163 387 c 3
 134 387 132 368 132 336 c 3
 132 259 131 125 131 59 c 3
 131 19 122 0 95 0 c 3
 58 0 52 23 52 59 c 3
 52 276 53 537 53 763 c 3
 53 785 73 820 97 820 c 3
EndSplineSet
Validated: 1
EndChar

StartChar: G
Encoding: 71 71 41
Width: 470
Flags: HW
LayerCount: 2
Fore
SplineSet
57.5 138 m 3
 57.5 309.94921875 60.5 483.044921875 60.5 664 c 3
 60.5 739.7890625 154.444335938 818 235.5 818 c 3
 342.541992188 818 412.5 691.09765625 412.5 645 c 3
 412.5 630.401367188 393.586914062 604 370.5 604 c 3
 351.225585938 604 344.83203125 597.913085938 334.5 628 c 0
 314.268554688 680.090820312 303.720703125 734 230.5 734 c 259
 198.55078125 734 142.5 695.950195312 142.5 673 c 3
 142.5 615.477539062 136.455078125 572.883789062 136.455078125 513.245117188 c 0
 136.455078125 440.340820312 134.5 274.377929688 134.5 202 c 3
 134.5 164.616210938 134.725585938 71 190.5 71 c 3
 198.024414062 71 216.873046875 70 226.5 70 c 7
 254.571289062 70 326.5 227.559570312 326.5 238 c 3
 326.5 251.194335938 324.365234375 262 303.5 262 c 3
 280.599609375 262 240.770507812 263 231.5 263 c 3
 210.900390625 263 192.5 274.30078125 192.5 301 c 3
 192.5 327.700195312 219.83984375 343 242.5 343 c 3
 280.610351562 343 333.020507812 342 364.5 342 c 3
 374.28125 342 394.5 312 394.5 301 c 3
 394.5 217 394.5 86 394.5 86 c 2
 394.5 60.2578125 398.916992188 20 355.5 20 c 3
 320.272460938 20 324.942382812 36 314.5 36 c 3
 285.158203125 36 293.603515625 0 252.5 0 c 3
 222.313476562 0 171.90234375 0 158.5 0 c 3
 127.5 0 57.5 68.279296875 57.5 138 c 3
EndSplineSet
Validated: 33
EndChar

StartChar: H
Encoding: 72 72 42
Width: 470
Flags: HW
LayerCount: 2
Fore
SplineSet
133 771 m 3
 133 692.918945312 133 572.340820312 133 507 c 259
 133 497.923828125 145.90234375 474 168 474 c 2
 318 474 l 258
 334 474 335 483.979492188 335 508 c 3
 335 564.48046875 335 714.66796875 335 771 c 3
 335 798.454101562 356.033203125 820 379 820 c 3
 400 820 417 803.015625 417 771 c 3
 417 525.293945312 417 271.69921875 417 52 c 3
 417 30.1962890625 402.340820312 0 381 0 c 3
 351.302734375 0 335 21.8271484375 335 52 c 3
 335 148.663085938 335 238.411132812 335 346 c 3
 335 379.015625 324 390 313 390 c 0
 271.366210938 390 195.215820312 390 158 390 c 3
 140 390 133 376.090820312 133 354 c 3
 133 273.915039062 133 147.459960938 133 52 c 3
 133 22.845703125 126 0 94 0 c 0
 70.1826171875 0 53 19.06640625 53 52 c 3
 53 290.051757812 58 530.98828125 58 771 c 3
 58 803.500976562 77 819 96 819 c 3
 129.112304688 819 133 792 133 771 c 3
EndSplineSet
Validated: 1
EndChar

StartChar: I
Encoding: 73 73 43
Width: 470
Flags: HW
LayerCount: 2
Fore
SplineSet
193.516601562 110 m 4
 194.639648438 301.102539062 193.516601562 520.52734375 193.516601562 710.794921875 c 3
 193.516601562 771.866210938 118.516601562 737.794921875 118.516601562 788.794921875 c 3
 118.516601562 807.14453125 141.8359375 820.821289062 160.516601562 820.794921875 c 2
 314.5 819.794921875 l 2
 340.49609375 819.625976562 352.5 806.794921875 352.5 787.794921875 c 3
 352.5 731.942382812 273.5 770.446289062 273.5 709.794921875 c 3
 273.5 513.555664062 273.24609375 304.171875 273.5 109 c 4
 273.5 63.8134765625 318.209960938 73.4736328125 340.905273438 55 c 4
 347.314453125 49.783203125 351.483398438 44.9130859375 351.483398438 32 c 7
 351.483398438 15.3525390625 342.284179688 3.181640625 322.516601562 0.5361328125 c 4
 319.72265625 0.1630859375 316.71875 0 313.5 0 c 7
 262.182617188 0 210.586914062 0 159.5 0 c 7
 140.819335938 0 117.5 13.650390625 117.5 32 c 7
 117.5 42.27734375 120.586914062 50.1572265625 125.516601562 55 c 4
 145.049804688 74.189453125 193.516601562 61.2353515625 193.516601562 110 c 4
EndSplineSet
Validated: 33
EndChar

StartChar: J
Encoding: 74 74 44
Width: 470
Flags: HW
LayerCount: 2
Fore
SplineSet
211.5 738 m 3
 186.419921875 738 164.5 749.017578125 164.5 778 c 3
 164.5 798.6171875 183.5 819 211.5 819 c 0
 314.5 819 l 3
 345.5 819 357.5 795.139648438 357.5 781 c 3
 357.5 568.327148438 357.5 350.224609375 357.5 143 c 3
 357.5 116.827148438 305.513671875 0 239.5 0 c 3
 167.404296875 0 112.5 100.771484375 112.5 178 c 3
 112.5 238.423828125 115.49609375 268 173.5 268 c 3
 203.5 268 169.897460938 88 233.5 88 c 3
 247.5 88 290.081054688 129.108398438 290.081054688 184 c 3
 290.081054688 384.237304688 287.5 523.39453125 287.5 706 c 3
 287.5 725.138671875 276.01953125 738 261.5 738 c 3
 253.8671875 738 227.655273438 738 211.5 738 c 3
EndSplineSet
Validated: 1
EndChar

StartChar: K
Encoding: 75 75 45
Width: 470
Flags: HW
LayerCount: 2
Fore
SplineSet
134.498046875 610.290039062 m 3
 134.498046875 583.969726562 125.385742188 549.290039062 145.498046875 540.360351562 c 0
 155.498046875 534.809570312 172.108398438 534.0390625 181.498046875 549.240234375 c 256
 242.498046875 648 279.498046875 711 334.498046875 790 c 256
 343.14453125 802.418945312 364.33203125 820 380.498046875 820 c 3
 396.443359375 820 409.498046875 795.26171875 409.498046875 785 c 259
 409.498046875 774.569335938 394.498046875 759.799804688 384.498046875 748.700195312 c 1
 357.578125 709.489257812 286.008789062 606.22265625 259.498046875 568.389648438 c 0
 247.329101562 551.0234375 235.58203125 530.790039062 225.498046875 514 c 0
 211.759765625 494.9375 203.918945312 489.244140625 200.498046875 462.66015625 c 0
 199.498046875 454.889648438 199.965820312 449.017578125 203.498046875 443.790039062 c 0
 225.943359375 410.571289062 230.666015625 400.0078125 259.498046875 336 c 256
 299.666015625 246.827148438 361.119140625 129.630859375 406.498046875 54 c 0
 409.744140625 48.58984375 409.498046875 34.439453125 409.498046875 30 c 3
 409.498046875 18.96875 391.498046875 0 375.498046875 0 c 3
 351.387695312 0 320.53515625 57.130859375 308.498046875 87.669921875 c 0
 271.224609375 182.236328125 228.955078125 241.064453125 192.498046875 322 c 0
 185.498046875 337.540039062 180.498046875 354.23046875 173.498046875 362 c 0
 169.873046875 366.0234375 141.123046875 363.17578125 137.498046875 367.200195312 c 1
 131.498046875 362.759765625 127.498046875 341.68359375 127.498046875 303.9296875 c 0
 127.498046875 220.693359375 129.498046875 123.036132812 129.498046875 42 c 3
 129.498046875 30.1396484375 117.498046875 0 95.498046875 0 c 3
 75.1171875 0 60.498046875 13.6865234375 60.498046875 41 c 3
 60.498046875 238.604492188 60.498046875 551.880859375 60.498046875 783 c 3
 60.498046875 800.109375 79.236328125 820 98.498046875 820 c 3
 118.498046875 820 134.498046875 795.79296875 134.498046875 783 c 3
 134.498046875 746.66015625 134.498046875 646.228515625 134.498046875 610.290039062 c 3
EndSplineSet
Validated: 33
EndChar

StartChar: L
Encoding: 76 76 46
Width: 470
Flags: HW
LayerCount: 2
Fore
SplineSet
388.90234375 40.6298828125 m 2
 388.90234375 21.107421875 374.765625 0 357.102539062 0 c 3
 281.225585938 0 174.912109375 0 113.102539062 0 c 3
 96.26953125 0 83.1025390625 23.8251953125 83.1025390625 39.51953125 c 3
 83.1025390625 287.811523438 80.9765625 527.048828125 81.1025390625 775 c 0
 81.1025390625 804.157226562 89.1708984375 820 120.102539062 820 c 259
 151.250976562 820 151.102539062 795.778320312 151.102539062 775 c 2
 151.102539062 150 l 2
 151.102539062 93.8359375 165.7578125 80 204.102539062 80 c 3
 232.724609375 80 330.501953125 77 348.102539062 77 c 3
 376.102539062 77 389.052734375 60 388.90234375 41.740234375 c 0
 388.892578125 40.6298828125 388.90234375 40.6298828125 388.90234375 40.6298828125 c 2
EndSplineSet
Validated: 33
EndChar

StartChar: M
Encoding: 77 77 47
Width: 470
Flags: HW
LayerCount: 2
Fore
SplineSet
32.5 771 m 3
 32.5 798.737304688 46.966796875 821 74.5 821 c 3
 87.26953125 821 110.377929688 796.623046875 117.5 772 c 256
 152.5 651 179.163085938 566.333007812 205.5 461 c 0
 209.504882812 444.982421875 216.71484375 427 237.5 427 c 3
 245.418945312 427 255.34765625 435.212890625 263.5 462 c 0
 279.807617188 515.581054688 329.5 680 355.495117188 768 c 0
 365.0390625 800.3125 385.70703125 818 401.5 818 c 3
 428.5 818 437.5 782 437.5 755 c 3
 437.5 537.279296875 437.5 264.319335938 437.5 53 c 3
 437.5 35.8876953125 423.815429688 0 401.5 0 c 0
 378.267578125 2.5810546875 363.5 27.919921875 363.5 53 c 27
 363.5 201.5703125 363.5 285.87890625 363.5 434 c 27
 363.5 454.025390625 361.536132812 483 347.5 483 c 3
 327.5 483 320.903320312 446.2109375 320.5 445 c 0
 293.5 364 295.5 367 263.5 288 c 0
 258.506835938 275.672851562 244.840820312 266 237.5 266 c 0
 222.133789062 266 209.216796875 274.002929688 205.5 288 c 0
 184.259765625 368 175.580078125 384.880859375 153.5 449 c 0
 146.581054688 469.092773438 133.419921875 486 125.5 486 c 3
 109.780273438 486 109.5 462.958007812 109.5 442.51953125 c 3
 109.5 323.71484375 109.5 177.181640625 109.5 53 c 3
 109.5 33.5546875 94.4462890625 0 70.5 0 c 0
 58.134765625 0 32.5 24.2705078125 32.5 53 c 3
 32.5 284.461914062 32.5 546.743164062 32.5 771 c 3
EndSplineSet
Validated: 1
EndChar

StartChar: N
Encoding: 78 78 48
Width: 470
Flags: HW
LayerCount: 2
Fore
SplineSet
53.5 778 m 2
 53.5 804 70.4287109375 820 98.5 820 c 3
 125.860351562 820 131.801757812 797.19140625 138.5 778 c 256
 190.5 629 237.897460938 492.073242188 290.059570312 359.907226562 c 0
 298.693359375 338.030273438 304.215820312 289 326.5 289 c 3
 333.939453125 289 333.5 300 333.5 337 c 2
 333.5 778 l 2
 333.5 803.194335938 332.318359375 819 371.5 819 c 3
 398.8828125 819 415.5 803 415.5 778 c 27
 415.5 523.44140625 416.5 315.962890625 416.5 60 c 3
 416.5 24.6884765625 397.5 0 382.5 0 c 3
 361.98046875 0 333.379882812 29.53515625 322.5 60 c 0
 277.5 186 241.5 298 190.5 433 c 0
 183.587890625 451.295898438 177.978515625 477 157.5 477 c 3
 146.455078125 477 135.5 468.015625 135.5 435.807617188 c 3
 135.5 310.692382812 135.5 183.905273438 135.5 60 c 3
 135.5 27.5537109375 126.508789062 0 98.5 0 c 3
 71.8955078125 0 53.5 15.7470703125 53.5 60 c 2
 53.5 778 l 2
EndSplineSet
Validated: 33
EndChar

StartChar: O
Encoding: 79 79 49
Width: 470
Flags: HW
LayerCount: 2
Fore
SplineSet
61.5 393 m 3
 61.5 561.975585938 96.5 820 242.5 820 c 3
 372.5 820 408.5 557.885742188 408.5 393 c 3
 408.5 262.30078125 378.5 0 242.5 0 c 3
 81.2783203125 0 61.5 232.44140625 61.5 393 c 3
341.922851562 393 m 3
 341.922851562 510.84375 325.716796875 737 242.5 737 c 3
 151.362304688 737 134.5 510.85546875 134.5 393 c 3
 134.5 291.131835938 146.260742188 83 242.5 83 c 3
 326.5234375 83 341.922851562 310.53125 341.922851562 393 c 3
EndSplineSet
Validated: 1
EndChar

StartChar: P
Encoding: 80 80 50
Width: 470
Flags: HW
LayerCount: 2
Fore
SplineSet
53.5 777 m 2
 56.3193359375 791.643554688 58.986328125 820.084960938 98.7900390625 820.084960938 c 3
 152.866210938 820.084960938 182.120117188 821 235.5 821 c 3
 307.5 821 416.5 662.00390625 416.5 546.310546875 c 3
 416.5 535.459960938 416.5 493.565429688 416.5 474 c 3
 416.5 401.826171875 320.506835938 249 251.5 249 c 3
 225.666992188 249 211.029296875 249 182.827148438 249 c 3
 155.799804688 249 128.5 246.836914062 128.5 211.504882812 c 2
 128.5 42 l 3
 128.5 14.2216796875 114.736328125 -0.724609375 90.62890625 -0.724609375 c 0
 69.4931640625 -0.724609375 53.5 13.7900390625 53.5 42 c 2
 53.5 777 l 2
127.5 394 m 2
 127.5 374.473632812 156.702148438 323 203.5 323 c 3
 280.357421875 323 343.08203125 440.965820312 343.08203125 526.584960938 c 3
 343.08203125 614.158203125 295.51953125 734 190.5 734 c 3
 157.048828125 734 127.5 704.859375 127.5 680 c 2
 127.5 394 l 2
EndSplineSet
Validated: 1
EndChar

StartChar: Q
Encoding: 81 81 51
Width: 470
Flags: HW
LayerCount: 2
Fore
SplineSet
232.5 820 m 3
 402.689453125 820 425.5 540 425.5 426 c 3
 425.5 321.725585938 409.577148438 217.7109375 379.5 167 c 0
 369.02734375 149.342773438 344.5 141.883789062 344.5 122 c 3
 344.5 119.400390625 344.5 97.7333984375 344.5 89 c 3
 344.5 78.5595703125 375.541015625 17.1982421875 380.580078125 8.640625 c 0
 382.568359375 4.1376953125 386.5 10.1044921875 386.5 -9 c 3
 386.5 -27 363.459960938 -42 356.5 -42 c 27
 328.528320312 -42 314.599609375 0 294.5 0 c 3
 274.65234375 0 259.639648438 3 232.5 3 c 3
 98.5 3 44.5 233.153320312 44.5 426 c 259
 44.5 517.013671875 54.083984375 820 232.5 820 c 3
115.400390625 426 m 3
 115.400390625 336.50390625 154.190429688 74 235.5 74 c 259
 266.5 74 259.5 97.814453125 259.5 115 c 3
 259.5 171.278320312 217.5 156.991210938 217.5 212 c 3
 217.5 225.038085938 223.53515625 249 248.5 249 c 3
 261.946289062 249 299.64453125 192 308.5 192 c 259
 346.5 192 354.940429688 383.897460938 354.940429688 426 c 3
 354.940429688 502.186523438 323.5 752 234.5 752 c 3
 135.994140625 752 115.400390625 522.938476562 115.400390625 426 c 3
EndSplineSet
Validated: 33
EndChar

StartChar: R
Encoding: 82 82 52
Width: 470
Flags: HW
LayerCount: 2
Fore
SplineSet
63.7587890625 788 m 1
 88.4169921875 819.5625 149.404296875 822 196.758789062 822 c 3
 346.31640625 822 406.758789062 643.021484375 406.758789062 550 c 3
 406.758789062 431.983398438 322.758789062 317 272.758789062 273 c 1
 272.758789062 242 272.758789062 253 272.758789062 222 c 1
 291.087890625 206.564453125 360.758789062 74.55859375 360.758789062 57 c 7
 360.758789062 -6.03125 328.758789062 0 311.758789062 0 c 3
 284.758789062 0 282.793945312 21.369140625 266.758789062 60.8798828125 c 256
 241.115234375 124.064453125 228.413085938 169.174804688 201.758789062 228.879882812 c 0
 193.758789062 246.799804688 186.758789062 253 176.758789062 253 c 3
 173.723632812 253 161.115234375 253 157.758789062 253 c 3
 143.6953125 253 142.758789062 245.340820312 142.758789062 234 c 3
 142.758789062 170.185546875 142.758789062 117.353515625 142.758789062 44 c 3
 142.758789062 15.5576171875 127.758789062 0 102.758789062 0 c 3
 72.7587890625 0 63.7587890625 31.7451171875 63.7587890625 44 c 3
 63.7587890625 268.858398438 62.59375 536.44921875 63.7587890625 788 c 1
196.758789062 737 m 3
 168.303710938 737 133.758789062 732.056640625 133.758789062 703 c 2
 133.758789062 397.6796875 l 2
 133.758789062 372.615234375 160.74609375 331 200.758789062 331 c 3
 272.579101562 331 333.758789062 473.75390625 333.758789062 550 c 3
 333.758789062 642.772460938 295.984375 737 196.758789062 737 c 3
EndSplineSet
Validated: 33
EndChar

StartChar: S
Encoding: 83 83 53
Width: 470
Flags: HW
LayerCount: 2
Fore
SplineSet
225 820 m 7
 335.016601562 820 406 704.0078125 406 642 c 3
 406 621 397.60546875 604 373 604 c 3
 358.75390625 604 341.15234375 609.174804688 336 625 c 0
 322 668 313 736 235 736 c 3
 165.993164062 736 140 674.006835938 140 596 c 3
 140 530.494140625 142.861328125 460 237 460 c 3
 378.444335938 460 407 337.783203125 407 231 c 3
 407 149.994140625 360.301757812 0 235 0 c 3
 137 0 63 111.958984375 63 161 c 3
 63 177.493164062 79.986328125 209 104 209 c 3
 117.188476562 209 131.243164062 201.1015625 143 177 c 0
 148.546875 165.626953125 150.994140625 79 230 79 c 3
 340.22265625 79 327 184.200195312 327 248 c 3
 327 310 331.645507812 380 228 380 c 3
 95.86328125 380 63 520.16015625 63 588 c 263
 63 686.004882812 122.98046875 820 225 820 c 7
EndSplineSet
Validated: 33
EndChar

StartChar: T
Encoding: 84 84 54
Width: 470
Flags: HW
LayerCount: 2
Fore
SplineSet
48.5 783 m 3
 48.5 803.025390625 72.5 820 91.5 820 c 2
 378.5 820 l 2
 397.498046875 820 421.5 810.301757812 421.5 783 c 3
 421.5 755.981445312 396.005859375 746 378.5 746 c 3
 362.856445312 746 320.1953125 746 307.262695312 746 c 3
 282.5 746 276.5 736.997070312 276.5 704 c 258
 276.5 48 l 2
 276.46875 27.5966796875 262.346679688 0 240.5 0 c 0
 217.540039062 0 196.5 17.6865234375 196.5 48 c 3
 196.5 266.08984375 196.5 485.91015625 196.5 704 c 0
 196.5 738.112304688 175.116210938 746 140.5 746 c 258
 91.5 746 l 14
 68.5 746 48.5 762.616210938 48.5 783 c 3
EndSplineSet
Validated: 1
EndChar

StartChar: U
Encoding: 85 85 55
Width: 470
Flags: HW
LayerCount: 2
Fore
SplineSet
53 773 m 3
 53 796.514648438 62 820 92 820 c 3
 115.755859375 820 132 797.521484375 132 773 c 2
 132 287 l 2
 132 197.995117188 195 83 250 83 c 3
 304.947265625 83 337 221.609375 337 287 c 2
 337 773 l 2
 337 798.079101562 352 820 377 820 c 3
 398.549804688 820 417 801.255859375 417 773 c 3
 417 618.77734375 418 367.5390625 418 287 c 3
 418 160.984375 318.333007812 0 251 0 c 3
 147.9609375 0 52 182.758789062 52 287 c 3
 52 446.178710938 53 612.116210938 53 773 c 3
EndSplineSet
Validated: 1
EndChar

StartChar: V
Encoding: 86 86 56
Width: 470
Flags: HW
LayerCount: 2
Fore
SplineSet
352 770 m 0
 354.959960938 790.181640625 368.213867188 821 389 821 c 3
 417.017578125 821 426 802.022460938 426 780 c 3
 426 763.96875 418.7265625 736.052734375 415 716 c 0
 394 603 314.186523438 162.26953125 287.974609375 49 c 0
 280.39453125 16.2431640625 264.225585938 -0 253 0 c 3
 237.881835938 0 213.099609375 0 213.099609375 0 c 3
 209.6796875 0 186.010742188 15.419921875 179.099609375 49 c 0
 146.797851562 205.955078125 76 592 53 716 c 0
 50.3447265625 730.31640625 44 745.982421875 44 775 c 3
 44 793.942382812 61.7060546875 820 81 820 c 3
 112.602539062 820 120.501953125 799.642578125 125 770 c 0
 147 625 183 445 216 273 c 256
 218.905273438 257.859375 229.810546875 247 235 247 c 3
 241.841796875 247 258.405273438 254.42578125 262 273 c 0
 298 459 330 620 352 770 c 0
EndSplineSet
Validated: 1
EndChar

StartChar: W
Encoding: 87 87 57
Width: 470
Flags: HW
LayerCount: 2
Fore
SplineSet
24.5009765625 771 m 4
 24.5009765625 794.268554688 31.2236328125 820 67.5009765625 820 c 0
 97.5009765625 820 104.500976562 796 104.500976562 771 c 3
 104.500976562 658.009765625 103.500976562 473.016601562 103.500976562 356 c 3
 103.500976562 331.059570312 109.984375 266.724609375 132.500976562 266.724609375 c 3
 153.515625 266.724609375 187.500976562 340 215.500976562 383 c 0
 219.025390625 388.413085938 224.500976562 398.506835938 234.500976562 398.506835938 c 3
 245.500976562 398.506835938 247.500976562 390.5859375 253.048828125 383 c 24
 280.603515625 347.330078125 317.500976562 275 335.500976562 275 c 3
 362.204101562 275 364.872070312 305.798828125 364.872070312 346 c 3
 364.872070312 486.98046875 364.500976562 629.41796875 364.500976562 771 c 3
 364.500976562 789.166992188 379.359375 820 404.500976562 820 c 3
 438.51171875 820 444.500976562 791.393554688 444.500976562 771 c 259
 444.500976562 526.08984375 445.500976562 286.353515625 445.500976562 48 c 3
 445.500976562 22.98046875 428.500976562 0 397.249023438 0 c 3
 381.09375 0 367.556640625 16.794921875 353.249023438 47 c 2
 353.249023438 47 331.500976562 104 281.249023438 207 c 0
 270.099609375 229.8515625 261.655273438 249 232.500976562 249 c 3
 207.420898438 249 205.594726562 227.1015625 195.249023438 207 c 0
 151.500976562 122 125.249023438 81 105.249023438 47 c 0
 81.09765625 5.943359375 87.03515625 0 59.2490234375 0 c 3
 26.5009765625 0 24.4345703125 24 24.5009765625 48 c 0
 24.5009765625 289 24.5009765625 530 24.5009765625 771 c 4
EndSplineSet
Validated: 33
EndChar

StartChar: X
Encoding: 88 88 58
Width: 470
Flags: HW
LayerCount: 2
Fore
SplineSet
137.5 68 m 256
 129.012695312 45.859375 105.813476562 0 81.5 0 c 3
 44.5634765625 0 31.5 17.013671875 31.5 38 c 3
 31.5 42.3076171875 38.8984375 73.705078125 46.3251953125 88.044921875 c 0
 66.5 127 145.5 276 159.684570312 303.385742188 c 0
 166.676757812 316.885742188 188.9921875 394.579101562 192.384765625 412 c 1
 192.384765625 508.634765625 105.7265625 616.833984375 67.2021484375 696 c 0
 56.65234375 717.678710938 46.15234375 742.418945312 43.5 770 c 8
 43.5 793.086914062 54.8486328125 820 74.5 820 c 3
 94.384765625 820 109.961914062 809.1875 117.5 790 c 0
 150.5 706 173.5 655 203.5 594 c 0
 210.93359375 578.883789062 222.07421875 566 240.5 566 c 3
 263.57421875 566 269.948242188 577.323242188 276.5 594 c 0
 298.5 650 339.5 732 366.5 790 c 0
 377.71484375 814.08984375 390.157226562 819.559570312 401.5 819.559570312 c 3
 421.751953125 819.559570312 438.5 783.911132812 438.5 766 c 3
 438.5 760.616210938 435.123046875 741.948242188 431.5 733 c 0
 414.37109375 690.700195312 358.5 599 316.5 511 c 24
 298.5 474 276.5 444.219726562 276.5 412 c 3
 276.5 405.583984375 291.5 351 306.834960938 315.228515625 c 28
 342.5 233 377.5 180 409.294921875 109.579101562 c 0
 419.728515625 86.4697265625 438.5 63.4765625 438.5 42 c 3
 438.5 22.9501953125 408.995117188 0 392.5 0 c 0
 376.998046875 0 355.5 32 340.5 58 c 280
 310.5 108 296.5 156 278.5 194 c 0
 269.7734375 212.423828125 273.918945312 236 243.5 236 c 3
 200.453125 236 208.34765625 221.092773438 194.5 194 c 0
 171.5 149 160.5 128 137.5 68 c 256
EndSplineSet
Validated: 1
EndChar

StartChar: Y
Encoding: 89 89 59
Width: 470
Flags: HW
LayerCount: 2
Fore
SplineSet
187.5 377 m 3
 187.5 409.329101562 180.131835938 438.234375 169.857421875 467 c 0
 139.5 552 104.5 637 78.5 710 c 0
 72.498046875 726.8515625 58.5 761 58.5 778 c 3
 58.5 814 80.998046875 820 92.5 820 c 7
 115.5 820 116.784179688 802.150390625 128.5 770 c 0
 159.245117188 685.629882812 176.639648438 629.166015625 204.5 557 c 0
 209.612304688 543.7578125 204.482421875 534.052734375 229.5 534.052734375 c 3
 257.567382812 534.052734375 248.763671875 540.561523438 255.5 557 c 0
 278.783203125 613.813476562 317.5 714 337.5 770 c 0
 348.525390625 800.87109375 347.272460938 820 374.5 820 c 3
 387.75 820 411.5 829.009765625 411.5 780 c 3
 411.5 767.630859375 397.600585938 727.681640625 391.5 714 c 0
 363.852539062 652 323.5 548 286.428710938 467 c 0
 273.256835938 438.219726562 268.76953125 406.37109375 268.5 377 c 2
 265.5 50 l 6
 265.5 30.3134765625 253.5 0 229.5 0 c 7
 201.93359375 0 186.5 20.2421875 186.5 50 c 3
 186.5 159.21484375 187.5 271.700195312 187.5 377 c 3
EndSplineSet
Validated: 33
EndChar

StartChar: Z
Encoding: 90 90 60
Width: 470
Flags: HW
LayerCount: 2
Fore
SplineSet
311.231445312 740 m 2
 87.021484375 740 l 2
 63.3837890625 740 44.947265625 751.143554688 44.021484375 778 c 0
 43.2626953125 800 52.4228515625 820 87.021484375 820 c 2
 384.021484375 820 l 2
 401.494140625 820 425.021484375 787.995117188 425.021484375 756 c 3
 425.021484375 743.465820312 426.021484375 732.900390625 426.021484375 723 c 3
 426.021484375 711.725585938 422.235351562 703.859375 417.850585938 696 c 0
 416.000976562 692.684570312 414.044921875 689.369140625 412.221679688 685.799804688 c 0
 316.979492188 499.344726562 247.279296875 334.383789062 146.26171875 147 c 0
 129.807617188 116.479492188 124.400390625 82.2001953125 156.071289062 82.2001953125 c 3
 239.03125 82.2001953125 316.63671875 80 368.021484375 80 c 3
 401.021484375 80 413.021484375 62.671875 413.021484375 40 c 3
 413.021484375 16.2998046875 387.672851562 0 368.021484375 0 c 258
 105.021484375 0 l 2
 67.87109375 0 47.021484375 21.4765625 47.021484375 54 c 3
 47.021484375 111.008789062 47.068359375 118 62.021484375 147 c 0
 161.021484375 339 280.021484375 558.100585938 318.021484375 642 c 1
 334.021484375 669.100585938 347.50390625 740 311.231445312 740 c 2
EndSplineSet
Validated: 33
EndChar

StartChar: bracketleft
Encoding: 91 91 61
Width: 470
Flags: HW
LayerCount: 2
Fore
SplineSet
97.5 768 m 7
 97.5 813.352539062 111.131835938 820 140.5 820 c 7
 176.720703125 820 294.782226562 820 331.5 820 c 7
 352.5 820 372.5 804 372.5 782 c 7
 372.5 756.290039062 355.99609375 742 331.5 742 c 4
 289.963867188 742 249.44921875 742 208.287109375 742 c 4
 192.48828125 742 182.5 735.35546875 182.5 718 c 262
 177.5 134.2734375 l 6
 177.250976562 105.236328125 184.676757812 78.1826171875 209.5 77 c 4
 232.071289062 75.9248046875 304.415039062 78 331.5 78 c 7
 356.5 78 372.5 60.857421875 372.5 39 c 31
 372.5 12.84375 353.985351562 0 331.5 0 c 7
 272.395507812 0 211.822265625 0 153.5 0 c 7
 113.5 0 97.5 21.3876953125 97.5 61.13671875 c 4
 97.5 291.967773438 97.5 558.612304688 97.5 768 c 7
EndSplineSet
Validated: 33
EndChar

StartChar: backslash
Encoding: 92 92 62
Width: 470
Flags: HW
LayerCount: 2
Fore
SplineSet
64.9287109375 765 m 4
 62.3173828125 771.97265625 58.9287109375 779.234375 58.9287109375 786 c 7
 58.9287109375 804.622070312 70.8994140625 820 88.9287109375 820 c 7
 115.947265625 820 133.546875 775.879882812 141.928710938 754 c 4
 263.771484375 435.942382812 312.243164062 310.290039062 401.928710938 82 c 4
 412.928710938 54 410.928710938 46.0419921875 410.928710938 34 c 7
 410.928710938 6.9814453125 397.40234375 0 384.928710938 0 c 7
 366.490234375 0 349.63671875 24.712890625 345.928710938 34 c 4
 240.928710938 297 155.928710938 522 64.9287109375 765 c 4
EndSplineSet
Validated: 33
EndChar

StartChar: bracketright
Encoding: 93 93 63
Width: 470
Flags: HW
LayerCount: 2
Fore
SplineSet
372 768 m 3
 372 559 372 292 372 61 c 0
 372 21 356 0 316 0 c 3
 258 0 198 0 138 0 c 3
 116 0 98 13 98 39 c 27
 98 61 114 78 138 78 c 3
 160.4 78 210.96 76.72 241.552 76.72 c 0
 249.2 76.72 255.6 76.8 260 77 c 0
 283.643808962 77.9457523585 292.082010024 102.14714033 292.082010024 129.301943396 c 0
 292.082010024 130.859522406 292.054247642 132.426818396 292 134 c 2
 288 718 l 258
 288 735 278 742 262 742 c 0
 221 742 180 742 138 742 c 0
 114 742 98 756 98 782 c 3
 98 804 118 820 138 820 c 3
 175 820 293 820 330 820 c 3
 359 820 372 813 372 768 c 3
EndSplineSet
Validated: 1
EndChar

StartChar: asciicircum
Encoding: 94 94 64
Width: 470
Flags: HW
LayerCount: 2
Fore
SplineSet
393 588 m 3
 393 574.081054688 378.025390625 555 358 555 c 3
 333.979492188 555 331.784179688 567.467773438 319 588 c 256
 286 641 280.77734375 647.862304688 253 693 c 0
 245 706 243.802734375 709 233.294921875 709 c 3
 226 709 224.115234375 705.70703125 217 693 c 256
 189 643 182 632 145 576 c 0
 137.551757812 564.7265625 130.1328125 555 115 555 c 3
 85.982421875 555 77 577.360351562 77 588 c 3
 77 603.033203125 77.4501953125 609.506835938 86.787109375 624 c 0
 119 674 166 750 196.350585938 800 c 0
 205.530273438 815.122070312 214.97265625 821 233.294921875 821 c 3
 261.969726562 821 263.073242188 814.76953125 273 800 c 256
 314 739 334.938476562 705.807617188 376 636 c 0
 387.604492188 616.271484375 393 611.142578125 393 588 c 3
EndSplineSet
Validated: 1
EndChar

StartChar: grave
Encoding: 96 96 65
Width: 470
Flags: HW
LayerCount: 2
Fore
SplineSet
299.970703125 522 m 0
 301.055664062 506.037109375 286.904296875 498.61328125 279.970703125 500 c 0
 264.970703125 503 254.706054688 516.193359375 250.970703125 526 c 256
 234.970703125 568 205.970703125 640 180.831054688 700 c 0
 172.6015625 719.640625 169.970703125 738.337890625 169.970703125 752 c 3
 169.970703125 804.038085938 203.203125 820 226.970703125 820 c 256
 250.249023438 820 272.751953125 809.275390625 275.970703125 786 c 0
 288.970703125 692 292.970703125 625 299.970703125 522 c 0
EndSplineSet
Validated: 1
EndChar

StartChar: a
Encoding: 97 97 66
Width: 470
Flags: HW
LayerCount: 2
Fore
SplineSet
161 505 m 0
 134 505 106 530 106 548 c 0
 106 566 131 588 159 588 c 256
 188 588 202 587 229 587 c 0
 318.7983311 587 376 455.691385103 376 350 c 0
 376 324 375 296 375 271 c 0
 375 247 370 210 370 191 c 0
 370 182 373 162 373 140 c 0
 373 132 373 127 373 122 c 0
 373 116 373 110 376 102 c 8
 380 90 395 105 401 68 c 256
 402 62 403 54 403 46 c 0
 403 33 399 19 384 19 c 0
 366 19 365 24 358 33 c 0
 347 48 346 66 330 66 c 0
 301 66 280 0 219 0 c 0
 215 0 208 0 200 0 c 0
 117.507427155 0 67 82.3925787399 67 163 c 259
 67 186 82 262 93 280 c 0
 106 303 122 331 145 339 c 0
 161 345 178 347 194 347 c 0
 212 347 230 345 246 345 c 0
 257 345 268 346 277 349 c 0
 294 355 298 364 298 378 c 0
 298 389 295 402 294 419 c 0
 292 454 277.970672663 466.96877867 262 482 c 0
 245 498 229 507 193 507 c 0
 178 507 169 505 161 505 c 0
144 168 m 0
 144 129 160 80 209 80 c 0
 255 80 268 117 282 136 c 256
 299 161 303 185 303 204 c 0
 303 265 292 265 217 265 c 0
 182 264 181 258 164 243 c 0
 147 228 144 208 144 168 c 0
EndSplineSet
EndChar

StartChar: b
Encoding: 98 98 67
Width: 470
Flags: HW
LayerCount: 2
Fore
SplineSet
85.318359375 696 m 6
 85.318359375 713.18359375 84.7119140625 724.083984375 84.7119140625 731 c 7
 84.7119140625 752.284179688 65.42578125 746 64.318359375 777 c 4
 63.6083984375 796.883789062 101.318359375 820 115.318359375 820 c 7
 136.318359375 820 165.318359375 776 165.318359375 766 c 7
 165.318359375 714.938476562 165 664.811523438 165 609 c 7
 165 594.857421875 177 588 187 588 c 6
 266 588 l 6
 405.584960938 588 407.318359375 344.983398438 407.318359375 280 c 7
 407.318359375 166.033203125 380.955078125 78.7421875 317.318359375 20 c 5
 287.318359375 10 276.318359375 0 254.318359375 0 c 4
 221.717773438 0 174.40625 30 161.318359375 30 c 4
 138.318359375 30 119.953125 8 103.318359375 8 c 7
 75.037109375 8 59.2353515625 22.22265625 63.318359375 44 c 4
 66.318359375 60 84.318359375 85.9404296875 84.318359375 111 c 7
 84.318359375 251.647460938 85.1796875 377.6640625 85.3037109375 518 c 4
 85.3134765625 528.909179688 85.318359375 539.904296875 85.318359375 551 c 6
 85.318359375 696 l 6
164.576171875 185 m 7
 164.576171875 114.1953125 185.318359375 82 247.318359375 82 c 7
 293.318359375 82 327 146.993164062 327 200 c 7
 327 276.65234375 327 334.15625 327 424 c 7
 327 442.411132812 292.586914062 517 250.318359375 517 c 7
 227.318359375 517 163.318359375 493 163.318359375 424 c 7
 163.318359375 351.3046875 164.576171875 266.076171875 164.576171875 185 c 7
EndSplineSet
Validated: 33
EndChar

StartChar: c
Encoding: 99 99 68
Width: 470
Flags: HW
LayerCount: 2
Fore
SplineSet
238.500976562 588 m 0
 298.500976562 588 372.500976562 548 372.500976562 486 c 2
 372.500976562 482 l 1
 371.500976562 466 371.500976562 455 371.500976562 450 c 1
 363.500976562 438 357.500976562 429 355.500976562 427 c 256
 353.500976562 425 343.500976562 424 326.500976562 424 c 0
 323.500976562 426 314.208007812 435.750976562 301.500976562 451 c 256
 286.500976562 469 287.500976562 507 242.500976562 507 c 256
 163.500976562 507 162.500976562 398.28515625 162.500976562 286 c 259
 162.500976562 208.451171875 169.516601562 81 244.500976562 81 c 0
 287.500976562 81 292.500976562 130 297.500976562 144 c 256
 299.500976562 149 300.500976562 161 306.500976562 165 c 0
 310.500976562 167 315.500976562 168 322.500976562 168 c 0
 330.500976562 168 341.500976562 167 352.500976562 167 c 0
 359.500976562 167 380.500976562 142 381.500976562 117 c 0
 381.500976562 64.546875 324.182617188 22.896484375 307.500976562 14 c 256
 279.500976562 1 261.500976562 0 230.500976562 0 c 27
 93.2705078125 0 88.4990234375 162.317382812 88.4990234375 300 c 3
 88.4990234375 444.373046875 91.08203125 588 238.500976562 588 c 0
EndSplineSet
Validated: 1
EndChar

StartChar: d
Encoding: 100 100 69
Width: 470
Flags: HW
LayerCount: 2
Fore
SplineSet
385 694 m 2
 385 549 l 2
 385 538 385 527 385 516 c 0
 385 376 386 250 386 109 c 3
 386 84 404 58 407 42 c 0
 407.408336953 39.7541467564 407.608250072 37.5916630466 407.608250072 35.5189319071 c 0
 407.608250072 17.2875380104 392.141641326 6 367 6 c 3
 350 6 332 28 309 28 c 0
 296 28 248 -2 216 -2 c 0
 194 -2 183 8 153 18 c 1
 89 77 63 164 63 278 c 3
 63 343 65 588 205 588 c 2
 284 588 l 2
 294 588 306 595 306 609 c 3
 306 665 305 713 305 764 c 3
 305 774 334 818 355 818 c 3
 369 818 406 795 406 775 c 0
 405 744 385 750 385 729 c 3
 385 722 385 711 385 694 c 2
305 183 m 3
 305 264 307 349 307 422 c 3
 307 491 243 515 220 515 c 3
 177 515 143 440 143 422 c 3
 143 377 142.75 340.25 142.75 305.125 c 0
 142.75 270 143 236.5 144 198 c 0
 145 145 177 80 223 80 c 3
 285 80 305 112 305 183 c 3
EndSplineSet
Validated: 1
EndChar

StartChar: e
Encoding: 101 101 70
Width: 470
Flags: HW
LayerCount: 2
Fore
SplineSet
233 77 m 3
 311.006409993 77 324.367142652 194.795587584 360.212890625 147 c 0
 369.49609375 134.622070312 373.42578125 120.6484375 373.42578125 107 c 3
 373.42578125 68.3212890625 304.208007812 -0.1494140625 231.213867188 -0.1494140625 c 3
 107.330078125 -0.1494140625 69.787109375 151.575195312 69.787109375 281 c 3
 69.787109375 416.884765625 115.93359375 588 239.212890625 588 c 0
 379.212890625 588 400.212890625 447.94140625 400.212890625 328 c 259
 400.212890625 294.758789062 399.235952802 251 365.212890625 251 c 3
 309.212890625 251 230.212890625 252 181.212890625 252 c 3
 145.653236839 252 144.041992188 218.551757812 144.041992188 202 c 3
 144.041992188 139.6796875 179.4375 77 233 77 c 3
241.212890625 516 m 3
 184 516 153.79296875 434.171875 153.79296875 383 c 3
 153.79296875 371.8359375 155.248046875 360.13671875 159 348 c 0
 166 325 203 332 231 332 c 0
 280 332 323 328 325 350 c 0
 326.356445312 364.924804688 327.53125 375.758789062 327.53125 385 c 3
 327.53125 422.975585938 311.007164279 516 241.212890625 516 c 3
EndSplineSet
EndChar

StartChar: f
Encoding: 102 102 71
Width: 470
Flags: HW
LayerCount: 2
Fore
SplineSet
80.5 550 m 3
 80.5 570 88.5 570 104.5 584 c 0
 121.5 598 129.5 618 133.5 642 c 256
 142.5 694 147.5 717 157.5 750 c 0
 172.89453125 797.721679688 209.327148438 819 272.5 819 c 2
 349.5 819 l 2
 369.5 819 389.5 799 389.5 777 c 3
 389.5 751 374.5 733 346.5 733 c 0
 316.5 733 297.5 734 273.5 734 c 0
 271.5 734 l 0
 218.5 734 204.5 675 204.5 628 c 0
 204.5 601 223.5 588 240.5 588 c 2
 293.5 588 l 2
 338.5 588 340.5 566 340.5 547 c 3
 340.5 530 324.5 505 297.5 505 c 1
 253.5 504 256.5 504 249.5 504 c 0
 229.5 504 214.5 453 214.5 436 c 0
 215.5 393 216.5 339 216.5 282 c 0
 216.5 204 215.5 121 214.5 56 c 0
 214.5 22 209.5 0 171.5 0 c 1
 143.5 0 128.5 24 128.5 54 c 1
 127.5 155 128.5 307 127.5 436 c 1
 124.5 474 126.5 483 111.5 515 c 0
 106.5 526 80.5 526 80.5 550 c 3
EndSplineSet
Validated: 33
EndChar

StartChar: g
Encoding: 103 103 72
Width: 470
Flags: HW
LayerCount: 2
Fore
SplineSet
135.319335938 31 m 256
 94.3193359375 60 69.3193359375 144 62.3193359375 200 c 0
 59.3193359375 224 58.3193359375 237 58.3193359375 259 c 0
 58.3193359375 295 55.3193359375 344 62.3193359375 377 c 0
 68.3193359375 403 71.3193359375 449 79.3193359375 469 c 0
 105.319335938 537 145.319335938 588 230.319335938 588 c 0
 290.319335938 588 301.319335938 570 330.319335938 546 c 256
 340.319335938 538 362.319335938 563 363.319335938 564 c 0
 366.319335938 569 376.319335938 570 401.319335938 568 c 256
 426.319335938 566 400.319335938 548 404.319335938 531 c 0
 405.319335938 527 404.319335938 520 404.319335938 517 c 0
 404.319335938 507 393.319335938 505 382.319335938 497 c 0
 368.319335938 487 370.319335938 470 370.319335938 460 c 1
 367.319335938 455 368.319335938 430 369.319335938 385 c 0
 371.319335938 306 375.319335938 205 377.319335938 126 c 256
 378.319335938 90 379.319335938 67 379.319335938 57 c 0
 379.319335938 43 378.319335938 -5 375.319335938 -25 c 0
 369.319335938 -71 370.319335938 -102 331.319335938 -135 c 24
 283.319335938 -174 264.319335938 -207 208.319335938 -207 c 0
 144.319335938 -207 65.3193359375 -129 65.3193359375 -104 c 0
 65.3193359375 -91 68.3193359375 -64 78.3193359375 -59 c 1
 100.319335938 -59 115.319335938 -50 128.319335938 -61 c 0
 140.319335938 -71 153.319335938 -107 164.319335938 -117 c 0
 174.319335938 -126 216.319335938 -133 232.319335938 -128 c 1
 263.319335938 -128 300.319335938 -63 310.319335938 -39 c 1
 310.319335938 -7 267.319335938 0 237.319335938 0 c 0
 172.319335938 0 189.319335938 -8 135.319335938 31 c 256
280.319335938 450 m 1
 270.319335938 463 251.319335938 500 231.319335938 500 c 0
 209.319335938 500 190.319335938 484 170.319335938 460 c 256
 150.319335938 436 145.319335938 393 145.319335938 371 c 0
 145.319335938 334 142.319335938 293 145.319335938 253 c 0
 151.319335938 171 143.319335938 77 222.319335938 81 c 0
 255.319335938 83 288.319335938 116 292.319335938 166 c 0
 301.319335938 281 297.319335938 299 297.319335938 391 c 0
 297.319335938 401 293.319335938 437 287.319335938 451 c 0
 279.319335938 473 280.319335938 450 280.319335938 450 c 1
EndSplineSet
Validated: 33
EndChar

StartChar: h
Encoding: 104 104 73
Width: 470
Flags: HW
LayerCount: 2
Fore
SplineSet
334 357.384765625 m 2
 334 406.868164062 302.225585938 516 250 516 c 0
 169.85546875 516 141 371.442382812 141 293 c 0
 141 218.424804688 142 124.495117188 142 65 c 0
 142 34.9833984375 135 0 102 0 c 0
 72 0 62 27.87890625 62 65 c 0
 62 269.953125 62 538.978515625 62 752 c 0
 62 793.72265625 55.3984375 819 96 819 c 0
 135.860351562 819 159.884765625 774.135742188 159.884765625 742.015625 c 256
 159.884765625 730.809570312 140.884765625 696.015625 140.884765625 677.015625 c 0
 140.884765625 664.75 142 642.46875 142 609 c 0
 142 576.665039062 142.29850689 555.120974047 159 556 c 0
 178 557 212.34765625 588 240 588 c 0
 336.220703125 588 403.095703125 504.602539062 411.76953125 417.860351562 c 0
 412.884765625 391.099609375 414 360.994140625 414 325.315429688 c 2
 414 65 l 2
 414 24 403 0 375 0 c 0
 352.78515625 0 334 21.98828125 334 65 c 2
 334 357.384765625 l 2
EndSplineSet
EndChar

StartChar: i
Encoding: 105 105 74
Width: 470
Flags: HW
LayerCount: 2
Fore
SplineSet
167.008789062 733 m 0
 167.008789062 768 195.008789062 796 230.008789062 796 c 0
 265.008789062 796 293.008789062 768 293.008789062 733 c 0
 293.008789062 698 265.008789062 671 230.008789062 671 c 0
 195.008789062 671 167.008789062 698 167.008789062 733 c 0
118.008789062 33 m 0
 118.008789062 88.330078125 194.008789062 49.2822265625 194.008789062 111 c 2
 194.008789062 488 l 258
 194.008789062 510 193.008789062 524 179.008789062 531 c 0
 163.008789062 539 145.008789062 543 145.008789062 562 c 0
 145.008789062 571 156.01171875 588 163.008789062 588 c 2
 237.008789062 588 l 258
 256.004882812 588 262.008789062 565 268.008789062 554 c 0
 273.008789062 545 273.192382812 510.999023438 273.008789062 488 c 0
 272.069335938 370.624023438 275.345703125 226.482421875 274.008789062 110 c 0
 274.008789062 64.8134765625 318.715820312 74.4716796875 341.413085938 56 c 0
 347.823242188 50.783203125 351.991210938 45.9130859375 351.991210938 33 c 0
 351.991210938 13.3115234375 338.790039062 1 314.008789062 1 c 2
 160.008789062 1 l 2
 141.327148438 1 118.008789062 14.650390625 118.008789062 33 c 0
EndSplineSet
Validated: 33
EndChar

StartChar: j
Encoding: 106 106 75
Width: 470
Flags: HW
LayerCount: 2
Fore
SplineSet
248 722 m 0
 248 757 276 785 311 785 c 0
 346 785 374 757 374 722 c 0
 374 687 346 660 311 660 c 0
 276 660 248 687 248 722 c 0
229 0 m 3
 125.762695312 0 96 100.864257812 96 134 c 3
 96 158.791015625 98 146 99 170 c 1
 122.63671875 172 142 171 169 170 c 257
 170.122070312 148.6875 169.913085938 77 222 77 c 3
 237.811523438 77 275 122.287109375 275 164 c 2
 275 479 l 2
 275 528.448242188 204 514.552734375 204 560 c 3
 204 583.513671875 260.486328125 588 264 588 c 3
 313.616210938 588 354 574.19140625 354 538 c 3
 354 446.845703125 356 268.061523438 356 164 c 3
 356 127 307 0 229 0 c 3
EndSplineSet
Validated: 33
EndChar

StartChar: k
Encoding: 107 107 76
Width: 470
Flags: HW
LayerCount: 2
Fore
SplineSet
72.5009765625 763 m 3
 72.5009765625 795.141601562 71.4521484375 818 112.500976562 818 c 3
 152.865234375 818 152.500976562 788.537109375 152.500976562 763 c 3
 152.500976562 664.21875 155.500976562 566.534179688 155.500976562 473 c 3
 155.500976562 443.982421875 190.123046875 436 192.500976562 436 c 3
 196.927734375 436 224.500976562 447.7734375 224.500976562 503 c 3
 224.500976562 526.053710938 279.448242188 622 299.500976562 654 c 0
 313.939453125 677.041015625 338.500976562 695 365.500976562 677 c 0
 386.500976562 663 375.248046875 619.744140625 366.500976562 604 c 0
 338.587890625 553.755859375 237.500976562 388.026367188 237.500976562 369 c 3
 237.500976562 348.635742188 238.500976562 360.015625 238.500976562 328 c 3
 238.500976562 311.025390625 397.500976562 90.2998046875 397.500976562 39 c 0
 397.500976562 18.3564453125 377.086914062 0 356.500976562 0 c 3
 346.112304688 0 322.583984375 2.6552734375 316.500976562 7 c 0
 301.310546875 17.849609375 297.3515625 27.2998046875 286.500976562 49 c 0
 264.721679688 92.5576171875 246 181.505859375 223.500976562 222 c 256
 212.650390625 241.529296875 198.180664062 243 189.500976562 243 c 0
 160 243 157 227.544921875 157 186 c 259
 157 143.892578125 157 109.518554688 157 62 c 3
 157 34.705078125 154 0 119 0 c 3
 81 0 77.5009765625 32.3193359375 77.5009765625 62 c 259
 77.5009765625 127.37109375 72.5009765625 624.637695312 72.5009765625 763 c 3
EndSplineSet
EndChar

StartChar: l
Encoding: 108 108 77
Width: 470
Flags: HW
LayerCount: 2
Fore
SplineSet
200.025390625 110 m 12
 199.717773438 313.641601562 200.0078125 517.333007812 200.0078125 721 c 0
 200.0078125 753.014648438 112.0078125 734 112.0078125 781 c 3
 112.0078125 803.090820312 121.73046875 818 180.072265625 818 c 3
 232.861328125 818 280.0078125 812.009765625 280.0078125 761 c 0
 280.0078125 109 l 5
 280.0078125 63.8134765625 324.717773438 73.4736328125 347.4140625 55 c 4
 353.822265625 49.783203125 357.9921875 44.9130859375 357.9921875 32 c 7
 357.9921875 15.3525390625 348.79296875 3.181640625 329.025390625 0.5361328125 c 4
 326.23046875 0.1630859375 323.2265625 0 320.0078125 0 c 7
 268.69140625 0 217.095703125 0 166.0078125 0 c 7
 147.328125 0 124.0078125 13.650390625 124.0078125 32 c 7
 124.0078125 42.27734375 127.095703125 50.1572265625 132.025390625 55 c 4
 151.55859375 74.189453125 200.025390625 61.2353515625 200.025390625 110 c 12
EndSplineSet
Validated: 33
EndChar

StartChar: m
Encoding: 109 109 78
Width: 470
Flags: HW
LayerCount: 2
Fore
SplineSet
440 46 m 0
 440 36 414 0 401 0 c 0
 360 0 360 12 352 28 c 0
 340 52 340 74 354 90 c 1
 359 108 359 129 359 143 c 0
 361 216 359 305 359 377 c 0
 359 405 357 441 360 461 c 256
 363 481 358 494 326 498 c 0
 275 504 287 471 276 434 c 1
 273 395 270 349 270 306 c 0
 271 282 271 260 271 236 c 2
 271 97 l 1
 274 74 286 67 286 43 c 256
 286 18 261 0 242 0 c 0
 205 0 186 26 188 61 c 256
 189 86 206 103 206 117 c 2
 206 410 l 2
 206 451 204 490 176 500 c 1
 147 500 144 492 137 477 c 0
 130 461 124 454 115 434 c 1
 113 368 119 314 119 250 c 0
 119 187 121 94 121 35 c 4
 121 16 90 0 72 0 c 0
 43 0 30 39 30 69 c 0
 30 84 32 104 37 119 c 0
 45 144 48 160 49 186 c 1
 49 266 l 1
 48 295 49 325 49 354 c 2
 49 519 l 2
 50 551 114 588 137 588 c 0
 186 588 244 548 254 548 c 0
 266 548 285 586 346 586 c 0
 388 586 427 508 428 457 c 0
 430 355 429 169 429 169 c 2
 429 127 429 100 430 87 c 0
 429 77 431 68 437 59 c 0
 439 56 440 52 440 46 c 0
EndSplineSet
Validated: 33
EndChar

StartChar: n
Encoding: 110 110 79
Width: 470
Flags: HW
LayerCount: 2
Fore
SplineSet
327.501953125 416 m 3
 327.501953125 435.026367188 298.512695312 511 251.501953125 511 c 3
 190.063476562 511 151.501953125 405.517578125 151.501953125 351 c 3
 151.501953125 265.822265625 151.501953125 134.501953125 151.501953125 42 c 3
 151.501953125 32.130859375 137.021484375 0 111.501953125 0 c 3
 91.7724609375 0 69.1875 13.126953125 69.501953125 42 c 256
 70.501953125 134 70.501953125 369.9453125 70.501953125 516 c 259
 70.501953125 545.383789062 82.5849609375 588 112.501953125 588 c 3
 140.364257812 588 137.3671875 545 169.501953125 545 c 3
 198.123046875 545 207.243164062 588 251.501953125 588 c 3
 311.670898438 588 408 506.124921973 408 406 c 3
 408 288.11328125 408 154.25390625 408 42 c 3
 408 26 396.221679688 0 367.501953125 0 c 3
 341.501953125 0 327.501953125 16.9228515625 327.501953125 43 c 3
 327.501953125 148.556640625 327.501953125 319.596679688 327.501953125 416 c 3
EndSplineSet
EndChar

StartChar: o
Encoding: 111 111 80
Width: 470
Flags: HW
LayerCount: 2
Fore
SplineSet
241.995117188 587.10546875 m 3
 375.1484375 587.10546875 393 429.887695312 393 287 c 27
 393 171.059570312 360.0078125 -0.5 241.995117188 -0.5 c 3
 105.438476562 -0.5 77 165.169921875 77 287 c 3
 77 420.600585938 112.369140625 587.10546875 241.995117188 587.10546875 c 3
146.995117188 287 m 3
 146.995117188 227.083984375 165.995117188 77.95703125 241.995117188 77.95703125 c 3
 319.995117188 77.95703125 323.995117188 208.016601562 323.995117188 287 c 259
 323.995117188 373.831054688 302.995117188 507 241.995117188 507 c 3
 172.995117188 507 146.995117188 372.188476562 146.995117188 287 c 3
EndSplineSet
Validated: 1
EndChar

StartChar: p
Encoding: 112 112 81
Width: 470
Flags: HW
LayerCount: 2
Fore
SplineSet
85 -108 m 2
 85 37 l 2
 85 48 85 59 85 70 c 0
 85 210 84 336 84 477 c 3
 84 502 66 528 63 544 c 0
 62.5916630466 546.245853244 62.3917499276 548.408336953 62.3917499276 550.481068093 c 0
 62.3917499276 568.71246199 77.8583586736 580 103 580 c 3
 120 580 138 558 161 558 c 0
 174 558 222 588 254 588 c 0
 276 588 287 578 317 568 c 1
 381 509 407 422 407 308 c 3
 407 243 406 -0 266 0 c 2
 187 0 l 2
 177 0 165 -7 165 -21 c 3
 165 -77 165 -127 165 -178 c 3
 165 -188 136 -232 115 -232 c 3
 101 -232 64 -209 64 -189 c 0
 65 -158 85 -164 85 -143 c 3
 85 -136 85 -125 85 -108 c 2
165 403 m 3
 165 322 163 237 163 164 c 3
 163 95 227 71 250 71 c 3
 293 71 327 146 327 164 c 3
 327 254 327 311 327 388 c 3
 327 441 293 506 247 506 c 3
 185 506 165 474 165 403 c 3
EndSplineSet
Validated: 1
EndChar

StartChar: q
Encoding: 113 113 82
Width: 470
Flags: HW
LayerCount: 2
Fore
SplineSet
384.681640625 -108 m 6
 384.681640625 -125.18359375 385.288085938 -136.083984375 385.288085938 -143 c 7
 385.288085938 -164.284179688 404.57421875 -158 405.681640625 -189 c 4
 406.391601562 -208.883789062 368.681640625 -232 354.681640625 -232 c 7
 333.681640625 -232 304.681640625 -188 304.681640625 -178 c 7
 304.681640625 -126.938476562 305 -76.8115234375 305 -21 c 7
 305 -6.857421875 293 -0 283 0 c 6
 204 0 l 6
 64.4150390625 0 62.681640625 243.016601562 62.681640625 308 c 7
 62.681640625 421.966796875 89.044921875 509.2578125 152.681640625 568 c 5
 182.681640625 578 193.681640625 588 215.681640625 588 c 4
 248.282226562 588 295.59375 558 308.681640625 558 c 4
 331.681640625 558 350.046875 580 366.681640625 580 c 7
 394.962890625 580 410.764648438 565.77734375 406.681640625 544 c 4
 403.681640625 528 385.681640625 502.059570312 385.681640625 477 c 7
 385.681640625 336.352539062 384.821289062 210.3359375 384.696289062 70 c 4
 384.686523438 59.0908203125 384.681640625 48.095703125 384.681640625 37 c 6
 384.681640625 -108 l 6
305.423828125 403 m 7
 305.423828125 473.8046875 284.681640625 506 222.681640625 506 c 7
 176.681640625 506 143 441.006835938 143 388 c 7
 143 311.34765625 143 253.84375 143 164 c 7
 143 145.588867188 177.413085938 71 219.681640625 71 c 7
 242.681640625 71 306.681640625 95 306.681640625 164 c 7
 306.681640625 236.6953125 305.423828125 321.923828125 305.423828125 403 c 7
EndSplineSet
Validated: 33
EndChar

StartChar: r
Encoding: 114 114 83
Width: 470
Flags: HW
LayerCount: 2
Fore
SplineSet
176 317 m 1
 176 255.4765625 176 187.538085938 176 122 c 3
 176 103.306640625 188 74.8896484375 188 57 c 3
 188 24.59375 163.266601562 0 137 0 c 0
 109.908203125 0 106 24.712890625 106 47 c 2
 106 548 l 2
 106 562.036132812 109.733398438 579 139 579 c 3
 164.248046875 579 176.271484375 544 196 544 c 3
 228.166015625 544 237.056640625 588 300 588 c 259
 355.322265625 588 427 601.70703125 427 545 c 3
 427 512.188476562 393 502 363 502 c 259
 247.784179688 502 190.379882812 420.369140625 176 317 c 1
EndSplineSet
Validated: 33
EndChar

StartChar: s
Encoding: 115 115 84
Width: 470
Flags: HW
LayerCount: 2
Fore
SplineSet
244 0 m 0
 164.811523438 0 123.559570312 3.287109375 78 53 c 0
 66.9482421875 65.1630859375 55 81.0869140625 55 94 c 3
 55 112.434570312 79.3896484375 124.568359375 94 124.568359375 c 3
 108.849609375 124.568359375 123.260742188 113.767578125 133.740234375 103.514648438 c 1
 165.724609375 87.8701171875 201.287109375 76 232 76 c 3
 290.014648438 76 333 92.71875 333 172 c 3
 333 241.006835938 305.334960938 259 232 259 c 3
 148.90625 259 55 290.930664062 55 407 c 259
 55 566.577148438 139.984375 586.275390625 237.690429688 586.275390625 c 3
 280.918945312 586.275390625 328.569335938 576.704101562 363 558.03125 c 0
 391.780273438 542.422851562 411.322265625 520.456054688 411.322265625 492.405273438 c 3
 411.322265625 474.383789062 402.713867188 454 388 454 c 3
 376.859375 454 370.87109375 453 359 453 c 7
 327.498046875 453 297.075195312 508.05078125 243 508.05078125 c 3
 180.807617188 508.05078125 128 474.079101562 128 417 c 3
 128 385.171875 136.899414062 341 261 341 c 3
 357.083007812 341 415 274.086914062 415 182 c 3
 415 42.708984375 335.588867188 0 244 0 c 0
EndSplineSet
Validated: 1
EndChar

StartChar: t
Encoding: 116 116 85
Width: 470
Flags: HW
LayerCount: 2
Fore
SplineSet
120.69921875 148 m 2
 120.69921875 471 l 2
 120.69921875 527.548828125 81.30078125 488.98046875 81.30078125 556.015625 c 3
 81.30078125 592.001953125 119.69921875 592.973632812 119.69921875 612 c 3
 119.69921875 635.770507812 120.69921875 702.825195312 120.69921875 744 c 3
 120.69921875 770.974609375 132.049804688 796 160.69921875 796 c 3
 195.259765625 796 200.69921875 771 200.69921875 744 c 259
 200.69921875 697.452148438 199.69921875 666.251953125 199.69921875 624 c 3
 199.69921875 585.03125 221.42578125 588 246.69921875 588 c 3
 255.33984375 588 284.541015625 588 299.69921875 588 c 259
 318.748046875 588 337.69921875 568 337.69921875 548 c 27
 337.69921875 525 310.5546875 508 299.69921875 508 c 3
 276.65234375 508 264.2890625 507 241.69921875 507 c 3
 216.6796875 507 199.69921875 474 199.69921875 452 c 3
 199.69921875 398.102539062 200.69921875 252.706054688 200.69921875 198 c 259
 200.69921875 163.78515625 212.704101562 96 248.69921875 96 c 3
 295.990234375 96 295.84375 187 358.69921875 187 c 3
 384.71875 187 388.69921875 162.520507812 388.69921875 150 c 3
 388.69921875 99.990234375 306.69921875 0 256.69921875 0 c 3
 166.69921875 0 120.69921875 108 120.69921875 148 c 2
EndSplineSet
Validated: 33
EndChar

StartChar: u
Encoding: 117 117 86
Width: 470
Flags: HW
LayerCount: 2
Fore
SplineSet
95.6875 588 m 3
 117.084960938 588 133.4375 566.10546875 133.4375 542 c 3
 133.4375 437.009765625 135.1328125 335.625976562 135.1328125 232 c 3
 135.1328125 186.655273438 141.2578125 137.787109375 159.0625 106.924804688 c 0
 171.361328125 85.6064453125 191.825195312 77.349609375 220.9375 77.349609375 c 0
 248.159179688 77.349609375 273.28515625 109.293945312 285.6875 129 c 0
 301.51171875 154.142578125 307.6875 183.83203125 307.6875 221 c 3
 307.6875 318.247070312 303.1875 443.965820312 303.1875 542 c 3
 303.1875 566.004882812 321.6875 589.224609375 348.0625 589.224609375 c 3
 374.6875 589.224609375 389.6875 562.004882812 389.6875 542 c 0
 388.5625 300.299804688 l 258
 388.219726562 227.34375 386.3125 215.799804688 386.3125 147.875 c 258
 386.3125 105.787109375 l 2
 386.3125 87.587890625 390.73046875 79.625 398.6875 79.625 c 0
 406.5625 79.625 411.6875 73.92578125 411.6875 58 c 0
 411.6875 54.4072265625 412.1875 46.6376953125 412.1875 43.224609375 c 0
 412.1875 29.9853515625 406.6875 14.787109375 395.3125 14.787109375 c 0
 364.510742188 14.787109375 350.360351562 50.4609375 327.6875 50.4609375 c 0
 321.661132812 50.4609375 315.677734375 49.6025390625 309.8125 46.6376953125 c 0
 281.87890625 30.7509765625 277.030273438 0 227.6875 0 c 0
 182.118164062 0 145.494140625 15.78515625 124.1875 38.6748046875 c 0
 105.0625 58.0126953125 87.0625 91 71.3125 136.5 c 0
 62.3125 166.075195312 57.8125 196.787109375 57.8125 230.912109375 c 0
 57.8125 339.2421875 59.6875 435.412109375 59.6875 542 c 3
 59.6875 565.001953125 73.6875 588 95.6875 588 c 3
EndSplineSet
Validated: 1
EndChar

StartChar: v
Encoding: 118 118 87
Width: 470
Flags: HW
LayerCount: 2
Fore
SplineSet
233.62890625 0 m 0
 187.029296875 0 131.66796875 280.352539062 96.9111328125 443 c 0
 90.7919921875 471.63671875 92.62890625 499 92.62890625 527 c 3
 92.62890625 561.677734375 102.62890625 588 129.62890625 588 c 3
 146.26171875 588 159.109375 572.5234375 162.62890625 537 c 0
 173.62890625 426 197.62890625 232 233.62890625 232 c 3
 278.427734375 232 283.62890625 426 298.62890625 537 c 0
 303.409179688 572.372070312 318.083007812 588 331.62890625 588 c 259
 363.204101562 588 377.62890625 564.015625 377.62890625 532 c 3
 377.62890625 516.73046875 370.311523438 459.440429688 366.900390625 443 c 0
 331.62890625 273 283.059570312 0 233.62890625 0 c 0
EndSplineSet
Validated: 33
EndChar

StartChar: w
Encoding: 119 119 88
Width: 470
Flags: HW
LayerCount: 2
Fore
SplineSet
102.5 588 m 3
 129.513671875 588 140.046875 565.012695312 140.046875 526 c 3
 140.046875 486.807617188 140.046875 425.271484375 140.046875 374 c 3
 140.046875 341.34765625 136.678710938 246 161.434570312 246 c 3
 186.526367188 246 189.84765625 320 233.248046875 320 c 0
 275.670898438 320 279.92578125 246 307.046875 246 c 3
 324.077148438 246 325.046875 340.865234375 325.046875 374 c 2
 325.046875 526 l 3
 325.046875 557.80078125 336.294921875 588 363.294921875 588 c 3
 391.294921875 588 401.54296875 556.037109375 401.54296875 526 c 259
 401.54296875 386.190429688 405.046875 248.701171875 405.046875 74 c 3
 405.046875 33.794921875 405.024414062 0 361.046875 0 c 0
 349.005859375 0 333.092773438 2.7998046875 321.046875 27 c 0
 302.580078125 64.1025390625 285.359375 183 234.046875 183 c 3
 187.650390625 183 166.046875 66 138.046875 24 c 0
 129.908203125 11.7919921875 113.8828125 0.2998046875 101.8359375 0.2998046875 c 0
 56.63671875 0.2998046875 67.142578125 40.4208984375 67.142578125 76.5 c 259
 67.142578125 217.51953125 64.953125 385.688476562 64.953125 526 c 3
 64.953125 561.750976562 73.5 588 102.5 588 c 3
EndSplineSet
Validated: 33
EndChar

StartChar: x
Encoding: 120 120 89
Width: 470
Flags: HW
LayerCount: 2
Fore
SplineSet
74 554 m 3
 74 573.430664062 90.9306640625 589.75 113 589.75 c 3
 185.021484375 589.75 173.811523438 430 237 430 c 259
 295.577148438 430 295.331054688 585.522460938 363 585.522460938 c 3
 381.327148438 585.522460938 396 570.932617188 396 554 c 3
 396 469.611328125 276 391.638671875 276 326 c 259
 276 305.455078125 276 297.627929688 276 275 c 3
 276 218.964297096 396.322580645 94 394 40 c 0
 393.951993309 38.8838444249 394 38.8828125 394 36.6474609375 c 0
 394 27.7080078125 387.98828125 0 363 0 c 3
 299.021484375 0 291.041015625 158 237 158 c 0
 176.166015625 158 165.764648438 0 113 0 c 3
 83.8125 0 74.53515625 32.0771484375 74.53515625 62.2275390625 c 3
 74.53515625 97.1792395842 185 216.862232585 185 275 c 3
 185 283.327148438 185 313.146484375 185 326 c 259
 185 393.030273438 74 492.407226562 74 554 c 3
EndSplineSet
Validated: 33
EndChar

StartChar: y
Encoding: 121 121 90
Width: 470
Flags: HW
LayerCount: 2
Fore
SplineSet
126.079101562 -41 m 3
 140.2109375 -41 168.024414062 -56.8740234375 191.079101562 -47 c 0
 206.610351562 -40.3486328125 199.079101562 6.9267578125 199.079101562 32 c 3
 199.079101562 119.874023438 84.0791015625 348.637695312 84.0791015625 485 c 3
 84.0791015625 506.534179688 85.0791015625 525.532226562 85.0791015625 542 c 3
 85.0791015625 573.666992188 103.079101562 588 118.237304688 588 c 3
 140.827148438 588 154.608398438 572.208984375 156.920898438 544 c 0
 161.920898438 483 196.100585938 208.68359375 236.237304688 208.68359375 c 3
 279.366210938 208.68359375 312.459960938 456.559570312 321.920898438 546 c 0
 324.317382812 568.658203125 341.772460938 588 362.920898438 588 c 3
 389.649414062 588 398.920898438 554.446289062 398.920898438 528 c 0
 398.920898438 492.532226562 389.0390625 459.559570312 381.555664062 427.133789062 c 0
 339.518554688 244.979492188 280.079101562 13 226.223632812 -164.484375 c 0
 222.370117188 -177.18359375 199.079101562 -205 158.079101562 -205 c 3
 104.071289062 -205 71.0791015625 -161.420898438 71.0791015625 -115 c 3
 71.0791015625 -83.9833984375 89.0654296875 -41 126.079101562 -41 c 3
EndSplineSet
Validated: 33
EndChar

StartChar: z
Encoding: 122 122 91
Width: 470
Flags: HW
LayerCount: 2
Fore
SplineSet
385.625 46.900390625 m 27
 385.625 22.9990234375 369.0078125 1.3916015625 343.375 1.3916015625 c 3
 290.115234375 1.3916015625 183.348632812 2 148.375 2 c 3
 106.36328125 2 84.375 53.755859375 84.375 105 c 3
 84.375 143.858398438 115.143554688 170.620117188 139.375 208 c 0
 174.379882812 262 211.609375 325.13671875 234.375 366 c 0
 249.551757812 393.241210938 264.375 412.12890625 264.375 443 c 3
 264.375 469.563476562 263.430664062 502 227.375 502 c 3
 196.490234375 502 156.345703125 503 125.375 503 c 3
 101.724609375 503 85.375 517.130859375 85.375 541 c 3
 85.375 565.934570312 102.875 586 124.375 586 c 3
 160.096679688 586 273.602539062 586 335.375 586 c 3
 363.875 586 384.375 555.208007812 384.375 545 c 3
 384.375 516.025390625 361.755859375 477.103515625 345.375 443 c 0
 284.375 316 261.375 274 198.575195312 172.674804688 c 256
 187.249023438 154.399414062 178.150390625 136.125 178.150390625 118.924804688 c 0
 178.150390625 100.390625 182.82421875 76 201.375 76 c 3
 230.702148438 76 285.717773438 77 343.375 77 c 3
 371.012695312 77 385.625 67.001953125 385.625 46.900390625 c 27
EndSplineSet
Validated: 1
EndChar

StartChar: braceleft
Encoding: 123 123 92
Width: 470
Flags: HW
LayerCount: 2
Fore
SplineSet
272.75 536 m 7
 272.75 498.078125 215.25 469 215.25 417 c 28
 215.25 364 273.25 338.637695312 273.25 294 c 7
 273.25 266.525390625 273.25 207.552734375 273.25 177 c 263
 273.25 91.927734375 349.75 76.4072265625 349.75 32 c 7
 349.75 1.8505859375 329.25 1 307.25 1 c 7
 225.75 1 189.25 147.545898438 189.25 201 c 4
 189.25 211.951171875 189.25 268.065429688 189.25 300 c 7
 189.25 370.943359375 120.25 361.991210938 120.25 417 c 7
 120.25 476.84375 189.25 473.9609375 189.25 542 c 7
 189.25 604.059570312 189.25 636.15625 189.25 689 c 7
 189.25 719.018554688 231.75 823 307.25 823 c 7
 330.09765625 823 346.25 807.75390625 346.25 782 c 7
 346.25 758.142578125 272.75 752.033203125 272.75 657 c 7
 272.75 656.78125 272.75 559.915039062 272.75 536 c 7
EndSplineSet
Validated: 1
EndChar

StartChar: bar
Encoding: 124 124 93
Width: 470
Flags: HW
LayerCount: 2
Fore
SplineSet
194.5 831 m 3
 194.5 855 209.071289062 874 234.5 874 c 3
 255.342773438 874 275.5 855.020507812 275.5 831 c 3
 275.5 596.086914062 275.5 249.23046875 275.5 -15 c 0
 275.5 -52.35546875 257 -66 233 -66 c 3
 212.080078125 -66 194.5 -39.109375 194.5 -15 c 0
 194.5 280.141601562 194.5 517.090820312 194.5 831 c 3
EndSplineSet
Validated: 1
EndChar

StartChar: braceright
Encoding: 125 125 94
Width: 470
Flags: HW
LayerCount: 2
Fore
SplineSet
197 536 m 3
 197 560 197 657 197 657 c 3
 197 752 124 758 124 782 c 3
 124 808 140 823 163 823 c 3
 238 823 281 719 281 689 c 3
 281 636 281 604 281 542 c 3
 281 474 350 477 350 417 c 3
 350 362 281 371 281 300 c 3
 281 268 281 212 281 201 c 0
 281 148 244 1 163 1 c 3
 141 1 120 2 120 32 c 3
 120 76 197 92 197 177 c 259
 197 208 197 267 197 294 c 3
 197 339 255 364 255 417 c 24
 255 469 197 498 197 536 c 3
EndSplineSet
Validated: 1
EndChar

StartChar: asciitilde
Encoding: 126 126 95
Width: 470
Flags: HW
LayerCount: 2
Fore
SplineSet
72 684 m 3
 72 719.127929688 123 822 170 822 c 3
 238.318359375 822 241 702 298 702 c 3
 332.966796875 702 337.486328125 772 371 772 c 3
 382 772 398 756.026367188 398 737 c 3
 398 711.290039062 347.038085938 612 295 612 c 3
 206.977539062 612 223.009765625 706 173 706 c 3
 132.80078125 706 139.740234375 655 108 655 c 3
 101.877929688 655 72 665.97265625 72 684 c 3
EndSplineSet
Validated: 1
EndChar

StartChar: underscore
Encoding: 95 95 96
Width: 470
Flags: HWO
LayerCount: 2
Fore
SplineSet
31 -39 m 0
 31 -20.751953125 47.0048828125 0 69 0 c 2
 395 0 l 2
 418.34375 -0 439 -16.9775390625 439 -39 c 0
 439 -65 409.178710938 -79 395 -79 c 2
 69 -79 l 2
 51.00390625 -79 31 -62.5546875 31 -39 c 0
EndSplineSet
EndChar
